<?xml version="1.0" encoding="utf-8"?>
<!-- Generator: Adobe Illustrator 27.0.0, SVG Export Plug-In . SVG Version: 6.00 Build 0)  -->
<svg version="1.1" id="Layer_1" xmlns="http://www.w3.org/2000/svg" xmlns:xlink="http://www.w3.org/1999/xlink" x="0px" y="0px"
	 viewBox="0 0 35 36" style="enable-background:new 0 0 35 36;" xml:space="preserve">
<style type="text/css">
	.st0{clip-path:url(#SVGID_00000173121350112489070350000002614272334499466679_);}
	.st1{fill-rule:evenodd;clip-rule:evenodd;fill:#FFFFFF;}
</style>
<g>
	<defs>
		<rect id="SVGID_1_" y="0.5" width="35" height="35"/>
	</defs>
	<clipPath id="SVGID_00000104703336368276845060000009321398659962943656_">
		<use xlink:href="#SVGID_1_"  style="overflow:visible;"/>
	</clipPath>
	<g style="clip-path:url(#SVGID_00000104703336368276845060000009321398659962943656_);">
		<path class="st1" d="M27.3,26.1c1.2-1.2,1.8-2.7,1.8-4.4c0-1.6-0.7-3.2-1.8-4.4l-9.5-9.5c-0.3-0.3-0.4-0.6-0.4-1
			c0-0.4,0.2-0.8,0.4-1c0.3-0.3,0.6-0.4,1-0.4c0.4,0,0.8,0.2,1,0.4l9.5,9.5c1.7,1.7,2.7,4,2.7,6.4c0,2.4-1,4.7-2.7,6.4
			c-1.7,1.7-4,2.7-6.4,2.7c-2.4,0-4.7-1-6.4-2.7L4.9,16.6c-1.2-1.2-1.9-2.9-1.9-4.6s0.7-3.4,1.9-4.6c1.2-1.2,2.9-1.9,4.6-1.9
			c1.7,0,3.4,0.7,4.6,1.9l11.6,11.6c0.7,0.8,1.1,1.8,1.1,2.8c0,1.1-0.4,2.1-1.2,2.8c-0.7,0.7-1.8,1.2-2.8,1.2
			c-1.1,0-2.1-0.4-2.8-1.1L9.5,14c-0.3-0.3-0.4-0.6-0.4-1c0-0.4,0.2-0.8,0.4-1c0.3-0.3,0.6-0.4,1-0.4c0.4,0,0.8,0.2,1,0.4l10.6,10.6
			c0.2,0.2,0.5,0.3,0.8,0.3c0.3,0,0.6-0.1,0.8-0.3c0.2-0.2,0.3-0.5,0.3-0.8c0-0.3-0.1-0.6-0.3-0.8L12.1,9.4
			c-0.3-0.3-0.7-0.6-1.2-0.8C10.5,8.4,10,8.3,9.5,8.3c-0.5,0-1,0.1-1.4,0.3C7.7,8.7,7.3,9,6.9,9.4C6.2,10,5.9,11,5.9,11.9
			c0,1,0.4,1.9,1.1,2.6l11.6,11.6c1.2,1.2,2.7,1.8,4.4,1.8C24.5,27.9,26.1,27.3,27.3,26.1L27.3,26.1z"/>
	</g>
</g>
</svg>
