<svg width="21" height="13" viewBox="0 0 21 13" fill="none" xmlns="http://www.w3.org/2000/svg">
<g clip-path="url(#clip0_148_67)">
<path d="M19.6 3.375L11.2 11.8C11.1 11.9 10.9917 11.9707 10.875 12.012C10.7584 12.054 10.6334 12.075 10.5 12.075C10.3667 12.075 10.2417 12.054 10.125 12.012C10.0084 11.9707 9.90002 11.9 9.80002 11.8L1.37502 3.375C1.14169 3.14166 1.02502 2.85 1.02502 2.5C1.02502 2.15 1.15002 1.85 1.40002 1.6C1.65002 1.35 1.94169 1.225 2.27502 1.225C2.60836 1.225 2.90002 1.35 3.15002 1.6L10.5 8.95L17.85 1.6C18.0834 1.36666 18.3707 1.25 18.712 1.25C19.054 1.25 19.35 1.375 19.6 1.625C19.85 1.875 19.975 2.16666 19.975 2.5C19.975 2.83333 19.85 3.125 19.6 3.375Z" fill="white"/>
</g>
<defs>
<clipPath id="clip0_148_67">
<rect width="12" height="20" fill="white" transform="translate(0.5 12.5) rotate(-90)"/>
</clipPath>
</defs>
</svg>
