<svg width="25" height="25" viewBox="0 0 25 25" fill="none" xmlns="http://www.w3.org/2000/svg">
<g clip-path="url(#clip0_35_4)">
<path d="M16.4062 12.5C16.4062 13.2726 16.1772 14.0278 15.7479 14.6702C15.3187 15.3126 14.7086 15.8132 13.9949 16.1089C13.2811 16.4046 12.4957 16.4819 11.7379 16.3312C10.9802 16.1805 10.2842 15.8084 9.73786 15.2621C9.19157 14.7158 8.81953 14.0198 8.66881 13.2621C8.51808 12.5043 8.59544 11.7189 8.8911 11.0051C9.18675 10.2914 9.68742 9.6813 10.3298 9.25207C10.9722 8.82285 11.7274 8.59375 12.5 8.59375C13.535 8.59697 14.5267 9.00955 15.2586 9.74142C15.9904 10.4733 16.403 11.465 16.4062 12.5ZM24.707 7.12891V17.8711C24.707 19.6841 23.9868 21.4228 22.7048 22.7048C21.4228 23.9868 19.6841 24.707 17.8711 24.707H7.12891C5.3159 24.707 3.57716 23.9868 2.29517 22.7048C1.01318 21.4228 0.292969 19.6841 0.292969 17.8711V7.12891C0.292969 5.3159 1.01318 3.57716 2.29517 2.29517C3.57716 1.01318 5.3159 0.292969 7.12891 0.292969H17.8711C19.6841 0.292969 21.4228 1.01318 22.7048 2.29517C23.9868 3.57716 24.707 5.3159 24.707 7.12891ZM18.3594 12.5C18.3594 11.3411 18.0157 10.2083 17.3719 9.24471C16.7281 8.28114 15.8129 7.53013 14.7423 7.08664C13.6716 6.64316 12.4935 6.52713 11.3569 6.75321C10.2203 6.9793 9.17624 7.53735 8.3568 8.3568C7.53735 9.17624 6.9793 10.2203 6.75321 11.3569C6.52713 12.4935 6.64316 13.6716 7.08664 14.7423C7.53013 15.8129 8.28114 16.7281 9.24471 17.3719C10.2083 18.0157 11.3411 18.3594 12.5 18.3594C14.054 18.3594 15.5444 17.7421 16.6432 16.6432C17.7421 15.5444 18.3594 14.054 18.3594 12.5ZM20.3125 6.15234C20.3125 5.86263 20.2266 5.57941 20.0656 5.33852C19.9047 5.09763 19.6759 4.90987 19.4082 4.799C19.1406 4.68813 18.846 4.65913 18.5619 4.71565C18.2777 4.77217 18.0167 4.91168 17.8119 5.11654C17.607 5.3214 17.4675 5.58241 17.411 5.86657C17.3544 6.15072 17.3834 6.44525 17.4943 6.71292C17.6052 6.98058 17.7929 7.20936 18.0338 7.37032C18.2747 7.53128 18.5579 7.61719 18.8477 7.61719C19.2362 7.61719 19.6087 7.46286 19.8835 7.18814C20.1582 6.91343 20.3125 6.54084 20.3125 6.15234Z" fill="white"/>
</g>
<defs>
<clipPath id="clip0_35_4">
<rect width="25" height="25" fill="white"/>
</clipPath>
</defs>
</svg>
