<svg width="26" height="26" viewBox="0 0 26 26" fill="none" xmlns="http://www.w3.org/2000/svg">
<g clip-path="url(#clip0_129_107)">
<path d="M13 23.0375C7.4875 23.0375 2.9625 18.5125 2.9625 13C2.9625 7.4875 7.4875 2.9625 13 2.9625C18.5125 2.9625 23.0375 7.4875 23.0375 13C23.0375 18.5125 18.5125 23.0375 13 23.0375ZM13 25.5C19.925 25.5 25.5 19.925 25.5 13C25.5 6.075 19.925 0.5 13 0.499999C6.075 0.499998 0.500002 6.075 0.500001 13C0.5 19.925 6.075 25.5 13 25.5ZM15.35 13.5875L18 10.95L18 18L10.95 18L13.5875 15.35L7.375 9.125L9.125 7.375" fill="#2B5876"/>
</g>
<defs>
<clipPath id="clip0_129_107">
<rect width="26" height="26" fill="white" transform="translate(26 26) rotate(-180)"/>
</clipPath>
</defs>
</svg>
