<svg width="15" height="47" viewBox="0 0 15 47" fill="none" xmlns="http://www.w3.org/2000/svg">
<rect x="0.5" y="0.5" width="14" height="24" rx="7" stroke="white"/>
<circle cx="7.5" cy="6.5" r="1.5" fill="#D9D9D9"/>
<path d="M7.14645 46.3536C7.34171 46.5488 7.65829 46.5488 7.85355 46.3536L11.0355 43.1716C11.2308 42.9763 11.2308 42.6597 11.0355 42.4645C10.8403 42.2692 10.5237 42.2692 10.3284 42.4645L7.5 45.2929L4.67157 42.4645C4.47631 42.2692 4.15973 42.2692 3.96447 42.4645C3.7692 42.6597 3.7692 42.9763 3.96447 43.1716L7.14645 46.3536ZM7 36L7 46L8 46L8 36L7 36Z" fill="white"/>
</svg>
