<svg width="182" height="39" viewBox="0 0 182 39" fill="none" xmlns="http://www.w3.org/2000/svg">
<path d="M25.025 3.025C24.95 2.95 24.925 2.85 24.925 2.8C24.925 2.6 24.15 1.95 24 2C23.95 2 23.825 1.925 23.675 1.8C23.3 1.475 22.825 1.325 22.125 1.325C21.5 1.3 20.9 1.4 20.7 1.5C20.525 1.625 20.65 1.675 20.85 1.575C21.075 1.45 22.575 1.475 22.775 1.6C22.9 1.675 22.875 1.7 22.65 1.65C22.125 1.575 20.575 2.15 19.475 2.875C18.275 3.625 16.175 5.475 15.075 6.75C14.875 6.975 14.45 7.475 14.125 7.825C12.525 9.65 10.45 12.5 9.075 14.775C8.6 15.55 8.2 16.15 8.2 16.15C8.2 16.125 8.275 15.95 8.4 15.75C8.525 15.525 8.725 15.15 8.875 14.85C9 14.6 9.25 14.175 9.4 13.925C9.8 13.225 9.65 13.25 9.175 13.95C8.95 14.3 8.725 14.6 8.7 14.65C8.6 14.75 8.975 14.05 9.15 13.8C9.225 13.7 9.3 13.55 9.3 13.475C9.3 13.4 9.325 13.35 9.375 13.35C9.475 13.35 9.75 12.85 9.7 12.775C9.675 12.75 9.75 12.575 9.875 12.425C10 12.25 10.15 12 10.25 11.85C10.325 11.675 10.45 11.5 10.55 11.425C10.625 11.35 10.7 11.25 10.7 11.225C10.7 11.175 10.775 11.05 10.85 10.95C10.95 10.875 11.075 10.7 11.125 10.575C11.2 10.475 11.325 10.3 11.45 10.225C11.55 10.125 11.65 10 11.65 9.95C11.65 9.9 11.675 9.85 11.725 9.85C11.75 9.85 11.8 9.775 11.825 9.7C11.9 9.5 12.2 9.2 12.3 9.25C12.325 9.275 12.375 9.25 12.375 9.15C12.375 9.075 12.425 8.975 12.525 8.95C12.625 8.925 12.75 8.8 12.825 8.7C12.975 8.5 12.975 8.425 12.875 8.5C12.775 8.55 12.8 8.45 12.975 8.225C13.075 8.075 13.15 8.025 13.25 8.05C13.4 8.1 13.6 7.85 13.6 7.575C13.6 7.475 13.65 7.4 13.725 7.4C13.775 7.4 13.825 7.375 13.825 7.35C13.825 7.325 13.925 7.2 14.025 7.075C14.125 6.975 14.25 6.8 14.325 6.725C14.375 6.65 14.475 6.6 14.5 6.625C14.6 6.65 15.05 6.175 15.05 6.05C15.075 5.9 15.45 5.525 15.625 5.525C15.8 5.5 15.825 5.45 15.85 5.225C15.875 5 15.9 4.95 16.125 4.85C16.275 4.8 16.45 4.675 16.525 4.55C16.6 4.4 16.7 4.35 16.775 4.35C16.85 4.375 16.925 4.325 16.975 4.25C17.025 4.175 17.1 4.1 17.175 4.125C17.25 4.125 17.3 4.1 17.3 4.05C17.3 3.975 17.425 3.85 17.575 3.75C17.75 3.65 17.875 3.525 17.875 3.475C17.875 3.425 17.9 3.375 17.95 3.375C17.975 3.375 18.125 3.275 18.275 3.175C18.4 3.05 18.55 2.95 18.6 2.95C18.625 2.95 18.675 2.925 18.675 2.875C18.675 2.8 18.775 2.725 18.9 2.65C19.2 2.525 19.675 2.125 19.55 2.125C19.4 2.125 19.2 2.25 18.45 2.775C18.075 3.05 17.625 3.35 17.475 3.425C17.3 3.525 17.175 3.625 17.175 3.65C17.175 3.675 17.1 3.7 17 3.75C16.9 3.775 16.875 3.8 16.925 3.825C17 3.875 16.95 3.95 16.8 4.1C16.625 4.25 16.575 4.275 16.625 4.175C16.725 3.875 13.925 6.7 13.2 7.6C12.975 7.9 12.575 8.375 12.35 8.65C11.8 9.3 10.275 11.325 9.675 12.175C9.55 12.35 9.425 12.5 9.425 12.475C9.4 12.475 9.45 12.3 9.55 12.1C9.625 11.925 9.85 11.3 10.05 10.75C10.25 10.175 10.625 9.3 10.85 8.775C11.075 8.275 11.25 7.825 11.25 7.825C11.25 7.8 11.525 7.275 11.85 6.65C12.175 6.025 12.45 5.475 12.45 5.425C12.45 5.375 12.5 5.325 12.55 5.3C12.6 5.275 12.65 5.175 12.675 5.075C12.675 4.975 12.7 4.9 12.725 4.925C12.8 4.975 13.05 4.6 12.975 4.525C12.925 4.475 13.225 4.05 13.85 3.275C14.125 2.95 14.35 2.625 14.35 2.575C14.35 2.525 14.4 2.4 14.475 2.275C14.6 2.025 14.55 1.875 14.325 1.875C14.2 1.875 14.175 1.85 14.2 1.775C14.225 1.7 14.2 1.65 14.125 1.65C14.075 1.65 14.05 1.625 14.075 1.525C14.1 1.375 14 1.275 13.625 1.175C13.05 0.999998 12.95 1.025 12.475 1.5C11.925 2.025 10.95 3.175 10.45 3.825C9.5 5.075 7.825 7.475 7.825 7.6C7.825 7.675 7.75 7.775 7.7 7.8C7.375 7.925 7.55 8.325 8.075 8.675C8.25 8.8 8.4 8.925 8.4 8.925C8.4 8.975 8.2 9.45 7.975 10.025C7.3 11.725 5.975 15.525 5.425 17.275C4.825 19.275 4.45 20.675 3.9 23.1C3.65 24.125 3.375 25.35 3.25 25.8C3.15 26.225 3 26.85 2.925 27.175C2.825 27.475 2.75 27.9 2.725 28.1C2.65 28.6 2.25 29.35 2.075 29.275C1.9 29.2 1.125 30.85 0.875 31.775C0.7 32.525 0.675 32.625 0.8 32.825C0.85 32.925 0.9 33.15 0.9 33.325C0.925 33.775 1.125 34.175 1.675 34.775C2.175 35.3 2.475 35.525 3.025 35.7C3.375 35.8 4.075 35.8 4.95 35.65C5.35 35.6 5.725 35.45 6.325 35.175C7.275 34.725 7.95 34.35 7.95 34.25C7.95 34.225 8 34.175 8.05 34.2C8.275 34.2 10.325 32.7 11.525 31.625C12.5 30.75 12.65 30.65 12.85 30.425C12.95 30.3 13.375 29.9 13.775 29.475C14.625 28.625 15.25 27.9 15.725 27.2C15.9 26.95 16.175 26.575 16.325 26.4C17.075 25.575 18.525 23.6 18.55 23.4C18.55 23.3 18.775 22.975 19.2 22.475C19.45 22.2 20.35 20.85 20.575 20.425C20.625 20.3 20.75 20.125 20.825 20.025C20.9 19.925 20.95 19.775 20.95 19.7C20.95 19.55 21.3 18.925 21.4 18.925C21.475 18.925 22.675 16.675 22.625 16.6C22.6 16.575 22.725 16.325 22.875 16.05C23.25 15.425 23.525 14.875 23.875 14.075C24.025 13.7 24.2 13.3 24.25 13.2C24.325 13 24.7 12 24.775 11.775C24.775 11.75 24.8 11.675 24.825 11.6C25.1 10.975 25.5 9.4 25.7 8.225C25.875 7.25 25.85 5.725 25.7 4.85C25.6 4.275 25.2 3.225 25.025 3.025ZM9.525 12.925C9.575 12.875 9.6 12.85 9.6 12.9C9.6 12.925 9.55 13 9.525 13.075C9.475 13.125 9.45 13.15 9.45 13.1C9.45 13.075 9.475 12.975 9.525 12.925ZM0.975 32.775C0.925 32.775 0.9 32.725 0.9 32.7C0.9 32.65 0.9 32.625 0.925 32.625C0.95 32.625 0.975 32.65 1 32.7C1.025 32.75 1 32.775 0.975 32.775ZM17.225 4.975C17.925 4.325 18.1 4.2 17.525 4.775C17.25 5.05 16.95 5.3 16.875 5.35C16.8 5.4 16.95 5.225 17.225 4.975ZM12.325 10.375C12.55 10.1 13 9.55 13.275 9.175C13.575 8.775 13.875 8.425 13.925 8.375C14 8.325 14.425 7.85 14.9 7.325C15.375 6.775 15.975 6.15 16.225 5.9C16.725 5.45 16.725 5.475 16.125 6.1C15.775 6.45 15.425 6.85 15.3 7C15.2 7.15 15 7.375 14.85 7.5C14.725 7.625 14.5 7.925 14.35 8.125C14.175 8.35 14.025 8.55 13.975 8.575C13.725 8.8 12.1 10.95 11.25 12.175C10.925 12.625 10.6 13.025 10.55 13.025C10.5 13.025 10.45 13 10.45 12.975C10.45 12.9 11.95 10.825 12.325 10.375ZM9.45 14.6C9.475 14.4 9.725 14 9.8 14.05C9.825 14.05 9.825 14.025 9.825 13.975C9.775 13.9 9.825 13.85 9.9 13.85C9.95 13.85 10 13.825 9.975 13.775C9.9 13.675 10.375 13.025 10.5 13.075C10.575 13.1 10.55 13.225 10.3 13.575C10.225 13.675 10.05 13.925 9.925 14.125C9.775 14.325 9.65 14.475 9.625 14.45C9.6 14.425 9.575 14.45 9.6 14.525C9.625 14.575 9.6 14.65 9.525 14.7C9.45 14.75 9.425 14.75 9.45 14.6ZM8.75 15.8C8.825 15.825 8.85 15.725 8.85 15.55C8.825 15.425 9.075 15.125 9.15 15.175C9.2 15.2 9.2 15.175 9.175 15.125C9.15 15.075 9.15 15 9.2 14.925C9.225 14.85 9.275 14.825 9.275 14.9C9.275 14.95 9.3 14.975 9.35 14.925C9.4 14.9 9.35 15.025 9.25 15.2C9.15 15.375 8.95 15.7 8.825 15.925C8.525 16.45 8.45 16.525 8.375 16.475C8.35 16.475 8.275 16.525 8.225 16.65C8.15 16.75 8.1 16.8 8.1 16.775C8.1 16.65 8.7 15.75 8.75 15.8ZM9.4 10.05C9.35 10.25 8.775 11.875 8.65 12.15C8.6 12.25 8.6 12.275 8.675 12.25C8.775 12.175 8.8 12.125 8.525 12.95C8.4 13.325 8.225 13.9 8.125 14.2C8.025 14.525 7.875 14.975 7.775 15.225C7.6 15.725 7.45 16.05 7.525 15.7C7.575 15.475 7.475 15.45 7.35 15.625C7.275 15.75 7.275 15.725 7.275 15.65C7.275 15.575 7.325 15.475 7.375 15.4C7.425 15.325 7.45 15.225 7.45 15.15C7.425 15.1 7.575 14.625 7.775 14.1C7.95 13.575 8.175 12.925 8.3 12.65C8.375 12.375 8.525 12.025 8.6 11.875C8.75 11.6 8.8 11.475 9.2 10.4C9.375 9.875 9.5 9.7 9.4 10.05ZM9.65 9.45C9.55 9.675 9.525 9.7 9.525 9.625C9.525 9.575 9.575 9.475 9.625 9.425C9.75 9.275 9.75 9.275 9.65 9.45ZM5.85 18.8C5.775 18.775 5.8 18.65 5.925 18.35C6.025 18.125 6.1 17.85 6.1 17.7C6.1 17.575 6.15 17.35 6.225 17.2C6.275 17.025 6.325 16.875 6.3 16.85C6.275 16.825 6.325 16.725 6.4 16.6C6.475 16.475 6.625 16.1 6.725 15.75C6.85 15.4 6.975 15.05 7 14.975C7.075 14.825 7.2 14.3 7.275 13.85C7.3 13.7 7.35 13.6 7.375 13.6C7.425 13.6 7.45 13.525 7.45 13.425C7.45 13.325 7.5 13.25 7.55 13.225C7.575 13.2 7.625 13.1 7.625 12.975C7.625 12.85 7.65 12.75 7.725 12.725C7.775 12.7 7.825 12.65 7.825 12.6C7.825 12.525 7.9 12.375 7.975 12.225C8.05 12.075 8.125 11.9 8.125 11.825C8.125 11.775 8.2 11.6 8.275 11.45C8.375 11.275 8.4 11.1 8.4 10.975C8.375 10.85 8.425 10.725 8.525 10.55C8.625 10.4 8.7 10.275 8.675 10.25C8.65 10.225 8.675 10.2 8.725 10.225C8.825 10.225 9.025 9.75 8.975 9.6C8.95 9.55 8.975 9.5 9.025 9.5C9.05 9.5 9.075 9.475 9.05 9.4C9.025 9.35 9.075 9.275 9.15 9.225C9.225 9.2 9.325 9.1 9.35 9.025C9.375 8.95 9.35 8.9 9.325 8.925C9.175 9 9.25 8.85 9.425 8.725C9.55 8.625 9.55 8.6 9.475 8.525C9.4 8.475 9.4 8.45 9.5 8.425C9.575 8.4 9.6 8.35 9.575 8.3C9.55 8.275 9.625 8.15 9.725 8.05L9.925 7.875L9.875 8.15C9.85 8.3 9.75 8.525 9.675 8.65C9.6 8.775 9.55 8.95 9.575 9C9.625 9.075 9.6 9.1 9.55 9.075C9.5 9.025 9.475 9.075 9.475 9.175C9.475 9.275 9.45 9.325 9.4 9.325C9.375 9.325 9.35 9.375 9.35 9.475C9.375 9.575 9.325 9.7 9.2 9.825C9.075 9.95 9.025 10.075 9.05 10.15C9.075 10.225 9 10.45 8.9 10.65C8.8 10.85 8.7 11.125 8.65 11.225C8.6 11.325 8.525 11.425 8.5 11.425C8.45 11.425 8.425 11.45 8.425 11.5C8.425 11.525 8.375 11.675 8.3 11.8C8.25 11.925 8.2 12.125 8.175 12.3C8.15 12.475 8.125 12.575 8.05 12.55C8 12.55 7.975 12.575 8 12.6C8.075 12.725 7.875 13.25 7.75 13.25C7.7 13.25 7.675 13.275 7.675 13.325C7.675 13.35 7.7 13.375 7.725 13.375C7.775 13.375 7.75 13.525 7.65 13.675C7.575 13.85 7.525 14.05 7.525 14.1C7.5 14.175 7.475 14.225 7.45 14.225C7.35 14.225 7.2 14.7 7.25 14.8C7.275 14.825 7.225 14.95 7.125 15.1C7.05 15.225 7 15.45 6.975 15.6C6.975 15.75 6.95 15.85 6.925 15.85C6.825 15.85 6.75 16.075 6.825 16.125C6.875 16.175 6.65 16.825 6.35 17.575C6.275 17.725 6.225 17.975 6.225 18.15C6.225 18.325 6.175 18.475 6.05 18.6C5.95 18.7 5.925 18.775 5.975 18.8C6.025 18.825 5.975 19.025 5.85 19.375C5.75 19.7 5.625 19.95 5.6 19.95C5.525 19.95 5.625 19.525 5.775 19.175C5.9 18.95 5.9 18.85 5.85 18.8ZM6.825 17.05C6.825 17 6.925 16.675 7.05 16.35C7.25 15.775 7.25 15.775 7.25 16.05C7.25 16.225 7.2 16.475 7.15 16.6C7 16.925 6.8 17.2 6.825 17.05ZM6.95 17.825C6.95 17.85 6.9 17.925 6.875 17.975C6.8 18.075 6.8 18.075 6.8 17.975C6.8 17.9 6.825 17.825 6.875 17.8C6.9 17.775 6.95 17.8 6.95 17.825ZM6.775 18.2C6.8 18.35 6.15 20.325 5.925 20.85C5.825 21.075 5.725 21.325 5.675 21.4C5.6 21.525 5.6 21.525 5.6 21.35C5.6 21.275 5.65 21.1 5.7 21C5.75 20.9 5.825 20.7 5.85 20.55C5.875 20.4 6.025 19.975 6.175 19.65C6.3 19.275 6.425 18.95 6.425 18.875C6.425 18.7 6.775 18.05 6.775 18.2ZM5.7 18.875C5.75 18.925 5.7 19.075 5.625 19.225C5.55 19.375 5.5 19.525 5.475 19.575C5.425 19.675 5.425 19.675 5.425 19.575C5.425 19.375 5.65 18.8 5.7 18.875ZM5.375 19.75C5.4 19.775 5.4 19.825 5.375 19.875C5.35 19.95 5.35 19.925 5.35 19.85C5.35 19.775 5.35 19.725 5.375 19.75ZM5.35 22.075C5.4 22.025 5.425 22 5.425 22.025C5.425 22.175 5.3 22.4 5.3 22.275C5.3 22.225 5.325 22.125 5.35 22.075ZM4.825 23.2C4.85 23.05 4.9 22.825 4.975 22.675L5.075 22.375L5.025 22.675C5 22.825 4.925 23.05 4.875 23.2L4.775 23.45L4.825 23.2ZM4.75 35.225C4.65 35.275 4.425 35.325 4.25 35.35C3.925 35.375 3.925 35.375 4.125 35.3C4.25 35.25 4.475 35.175 4.625 35.15C4.9 35.125 4.925 35.125 4.75 35.225ZM5.425 34.95C5.25 35.05 5.025 35.125 5.025 35.075C5.025 35.05 5.425 34.85 5.5 34.85C5.525 34.85 5.5 34.9 5.425 34.95ZM5.875 34.775C5.85 34.775 5.825 34.75 5.825 34.725C5.825 34.675 5.85 34.65 5.875 34.65C5.925 34.65 5.95 34.675 5.95 34.725C5.95 34.75 5.925 34.8 5.875 34.775ZM10.175 32.075C10.1 32.1 10.05 32.15 10.05 32.2C10.05 32.325 9.725 32.625 9.6 32.6C9.55 32.6 9.375 32.725 9.2 32.9C9.05 33.075 8.9 33.225 8.85 33.225C8.8 33.2 8.75 33.25 8.725 33.325C8.7 33.375 8.6 33.425 8.5 33.425C8.4 33.425 8.275 33.475 8.2 33.575C8.125 33.675 8.025 33.725 7.975 33.7C7.95 33.7 7.9 33.725 7.85 33.75C7.825 33.8 7.775 33.825 7.7 33.825C7.65 33.825 7.45 33.925 7.275 34.05C7.075 34.175 6.825 34.325 6.675 34.4C6.55 34.45 6.425 34.5 6.425 34.5C6.425 34.5 6.375 34.475 6.325 34.45C6.25 34.425 7.025 33.925 7.85 33.5C8.3 33.25 9.275 32.575 9.675 32.225C10 31.925 10.275 31.825 10.275 31.975C10.275 32 10.225 32.05 10.175 32.075ZM10.85 31.725C10.8 31.75 10.775 31.725 10.775 31.7C10.775 31.65 10.8 31.625 10.85 31.625C10.875 31.625 10.925 31.625 10.925 31.65C10.925 31.675 10.875 31.7 10.85 31.725ZM13.625 28.775C13.575 28.775 13.525 28.8 13.525 28.85C13.525 28.9 13.375 29.075 13.2 29.225C13.025 29.375 12.875 29.55 12.875 29.625C12.875 29.7 12.85 29.75 12.8 29.75C12.7 29.75 12.55 29.85 12.35 30.075C11.775 30.675 11.65 30.85 11.65 30.95C11.65 31.025 11.575 31.075 11.525 31.075C11.45 31.075 11.275 31.175 11.15 31.3C11 31.425 10.85 31.525 10.85 31.5C10.8 31.5 10.725 31.55 10.625 31.675C10.55 31.775 10.4 31.85 10.275 31.85C10 31.875 10.025 31.725 10.3 31.7C10.4 31.675 10.5 31.625 10.5 31.575C10.5 31.525 10.55 31.45 10.625 31.4C10.8 31.325 11.025 31 10.95 30.95C10.9 30.925 10.7 31.075 10.45 31.25C10.025 31.575 9.575 31.85 9.525 31.8C9.475 31.75 10.4 31.05 10.5 31.05C10.575 31.05 10.7 30.975 10.8 30.875C10.9 30.8 11.075 30.7 11.175 30.675C11.425 30.625 11.95 30.1 11.9 29.975C11.875 29.925 11.825 29.95 11.825 30C11.8 30.05 11.75 30.075 11.725 30.075C11.625 30.075 11.875 29.725 12.05 29.65C12.2 29.575 12.2 29.575 12.075 29.7C11.9 29.9 11.925 29.95 12.15 29.925C12.25 29.925 12.35 29.875 12.35 29.85C12.35 29.8 12.5 29.625 12.675 29.45C12.85 29.275 13.05 29.075 13.1 29C13.15 28.9 13.225 28.825 13.25 28.825C13.35 28.825 13.45 28.725 13.75 28.35C13.9 28.15 14.125 28.05 14.125 28.175C14.1 28.3 13.725 28.775 13.625 28.775ZM15.05 27.15C14.9 27.3 14.7 27.55 14.575 27.7C14.475 27.875 14.325 28 14.25 28C14.05 28 14.075 27.925 14.475 27.5C14.65 27.3 14.875 27.025 14.975 26.9C15.1 26.75 15.125 26.725 15.2 26.8C15.275 26.875 15.25 26.925 15.05 27.15ZM15.25 26.75C15.225 26.725 15.25 26.65 15.325 26.6C15.45 26.5 15.475 26.35 15.325 26.425C15.275 26.475 15.275 26.45 15.325 26.4C15.425 26.3 15.575 26.35 15.575 26.45C15.575 26.575 15.3 26.85 15.25 26.75ZM17.15 24.675C17.075 24.775 16.975 24.85 16.925 24.85C16.9 24.85 16.925 24.775 17 24.675C17.05 24.575 17.175 24.5 17.225 24.5C17.3 24.525 17.3 24.55 17.15 24.675ZM24.2 11.675C24.025 12.35 22.925 15.05 22.475 15.925C22.225 16.4 21.85 17.15 21.6 17.625C21.125 18.6 20.725 19.375 20.525 19.575C20.475 19.65 20.3 19.925 20.125 20.175C19.45 21.275 18.6 22.475 18.55 22.45C18.5 22.4 18.125 22.925 18.125 23.025C18.125 23.075 18.05 23.225 17.975 23.375C17.875 23.525 17.8 23.725 17.775 23.825C17.775 23.9 17.7 24.025 17.625 24.075C17.525 24.2 17.525 24.175 17.6 24.05C17.7 23.85 17.7 23.8 17.575 23.85C17.425 23.9 16.8 24.775 16.85 24.875C16.875 24.925 16.8 25 16.7 25.05C16.6 25.1 16.475 25.2 16.475 25.25C16.375 25.475 15.95 26.025 15.9 26C15.8 25.875 15.975 25.55 16.15 25.55C16.225 25.55 16.325 25.125 16.275 25.075C16.25 25.05 16.2 25.075 16.15 25.125C16.125 25.175 16.1 25.2 16.1 25.15C16.1 25.1 16.15 25 16.225 24.9C16.3 24.825 16.475 24.575 16.6 24.35C16.725 24.15 16.875 23.95 16.95 23.925C17 23.875 17.05 23.825 17.05 23.775C17.05 23.675 17.4 23.275 17.45 23.325C17.45 23.35 17.425 23.45 17.375 23.575C17.325 23.675 17.25 23.85 17.225 23.95C17.175 24.1 17.175 24.1 17.325 23.9C17.4 23.8 17.7 23.375 17.95 22.975C18.225 22.6 18.5 22.25 18.55 22.225C18.7 22.2 18.8 21.9 18.725 21.725C18.675 21.6 18.525 21.65 18.55 21.8C18.55 21.85 18.525 21.9 18.475 21.875C18.45 21.85 18.375 21.875 18.35 21.925C18.3 22 18.275 22 18.275 21.925C18.275 21.875 18.375 21.7 18.5 21.55C19.35 20.525 21.15 17.375 22.375 14.8C22.55 14.375 22.75 14.075 22.775 14.1C22.825 14.1 22.825 14.075 22.8 14.025C22.775 13.975 22.875 13.75 23 13.525C23.125 13.325 23.2 13.125 23.175 13.125C23.15 13.125 23.175 13.075 23.225 13.025C23.275 12.975 23.275 12.9 23.275 12.85C23.225 12.825 23.25 12.775 23.325 12.775C23.425 12.775 23.875 11.925 24.15 11.175C24.25 10.875 24.375 10.625 24.375 10.6C24.425 10.55 24.325 11.225 24.2 11.675ZM18.825 20.725C18.875 20.7 18.8 20.8 18.7 20.95C18.6 21.1 18.475 21.2 18.45 21.2C18.425 21.2 18.725 20.8 18.825 20.725ZM19.025 20.4C19.125 20.225 19.275 20.025 19.35 19.925C19.4 19.85 19.4 19.9 19.3 20.05C19.2 20.2 19.075 20.425 19 20.5C18.925 20.6 18.95 20.55 19.025 20.4ZM19.575 19.525C19.625 19.4 19.7 19.3 19.725 19.3C19.75 19.3 19.7 19.4 19.65 19.525C19.575 19.625 19.525 19.725 19.5 19.725C19.475 19.725 19.525 19.625 19.575 19.525ZM19.875 19.025C19.925 18.925 20 18.825 20.025 18.825C20.05 18.825 20 18.925 19.95 19.025C19.875 19.15 19.8 19.25 19.8 19.25C19.775 19.25 19.8 19.15 19.875 19.025ZM20.1 18.65C20.125 18.6 20.175 18.55 20.175 18.575C20.2 18.6 20.175 18.65 20.125 18.7C20.05 18.775 20.05 18.75 20.1 18.65ZM20.275 18.375C20.275 18.275 20.875 17.2 20.9 17.225C20.925 17.25 20.775 17.525 20.6 17.85C20.425 18.175 20.275 18.4 20.275 18.375ZM23.3 12.65C23.3 12.575 23.35 12.475 23.375 12.4L23.45 12.25V12.4C23.45 12.475 23.4 12.575 23.375 12.65C23.3 12.725 23.3 12.725 23.3 12.65ZM24.075 9.825C23.975 10.175 23.875 10.6 23.875 10.725C23.825 11.1 23.475 12.275 23.45 12.15C23.4 12.025 23.425 11.95 23.65 11.3C23.925 10.5 23.55 11.025 23.2 11.925C23.025 12.45 21.975 14.675 21.4 15.8C20.225 18.1 19.375 19.525 17.575 22.1C16.2 24.075 15.45 25.25 15.575 25.25C15.625 25.25 15.675 25.2 15.7 25.15C15.725 25.075 15.75 25.05 15.775 25.075C15.8 25.1 15.725 25.225 15.625 25.35C15.525 25.475 15.45 25.625 15.425 25.625C15.425 25.675 15.375 25.775 15.175 26C15.125 26.05 15.075 26.125 15.075 26.15C15.075 26.275 14.55 26.8 14.45 26.775C14.375 26.75 14.35 26.775 14.35 26.9C14.35 27.025 14.125 27.275 13.525 27.875C13.075 28.3 12.275 29.1 11.725 29.675C11.175 30.225 10.675 30.675 10.65 30.65C10.625 30.625 10.325 30.825 10.025 31.1C9.725 31.35 9.175 31.775 8.85 32.05C8.5 32.3 8.225 32.525 8.2 32.55C8.175 32.575 8.075 32.65 7.975 32.7C7.875 32.75 7.55 32.95 7.225 33.175C6.7 33.525 5.275 34.275 5.15 34.275C5.1 34.275 5.125 34.25 5.2 34.2C5.375 34.1 5.125 34.125 4.725 34.275C4.325 34.4 4.35 34.425 4.775 34.35C4.925 34.3 5.025 34.3 5.025 34.325C4.95 34.4 4.225 34.6 3.8 34.675C3.275 34.75 3.05 34.75 3.05 34.65C3.05 34.6 2.975 34.6 2.875 34.625C2.75 34.65 2.7 34.65 2.7 34.575C2.7 34.525 2.65 34.5 2.6 34.525C2.55 34.55 2.45 34.525 2.4 34.475C2.275 34.3 2.175 33.7 2.225 33.5C2.275 33.4 2.325 33.05 2.375 32.7C2.425 32.375 2.5 32.075 2.55 32.05C2.575 32.025 2.6 32 2.575 31.95C2.5 31.85 3.275 30.125 3.4 30.125C3.45 30.125 3.55 30.175 3.65 30.275C3.85 30.425 4.3 30.475 4.4 30.325C4.45 30.275 4.5 30.075 4.475 29.925V29.6L4.775 29.625C5.175 29.675 5.275 29.6 5.275 29.2C5.275 28.95 5.225 28.825 5.1 28.675C4.95 28.525 4.925 28.45 4.975 28.125C5.025 27.625 5.2 27.375 6.45 26.175C7.45 25.225 7.9 24.85 8.875 24.3C9.125 24.15 9.375 24 9.45 23.95C10.45 23.375 12.125 23.025 12.65 23.3C12.975 23.475 13.425 23.35 13.125 23.175C13.075 23.15 13 23.05 13 22.975C12.975 22.875 12.85 22.8 12.55 22.675C12.2 22.55 11.95 22.525 11.15 22.525C10.25 22.5 10.075 22.525 9.575 22.675C9.25 22.775 8.725 23 8.4 23.15C7.75 23.475 5.925 24.55 5.85 24.7C5.825 24.75 5.75 24.8 5.675 24.825C5.575 24.9 5.625 24.625 5.975 23.3C6.55 21.25 6.9 20.45 8.375 17.625C9.175 16.1 9.45 15.625 10.625 13.75C11.1 13 11.525 12.35 11.55 12.275C11.7 12.025 13.025 10.325 14.45 8.5C14.575 8.35 14.65 8.2 14.625 8.15C14.625 8.1 14.65 8.075 14.7 8.1C14.75 8.1 14.95 7.9 15.15 7.65C16.225 6.375 18.425 4.325 19.75 3.375C20.125 3.1 20.7 2.75 21.025 2.6C21.7 2.3 22.65 2.075 23.1 2.15C23.65 2.25 24.05 2.75 24.2 3.575C24.225 3.8 24.325 4.125 24.35 4.325C24.4 4.525 24.475 5.325 24.5 6.125C24.55 7.75 24.475 8.5 24.075 9.825ZM9.675 23.425C9.75 23.4 9.8 23.4 9.775 23.45C9.75 23.475 9.675 23.5 9.625 23.5C9.475 23.5 9.5 23.45 9.675 23.425ZM10.25 23.2C10.325 23.2 10.35 23.2 10.35 23.25C10.325 23.275 10.25 23.3 10.2 23.3C10.05 23.3 10.075 23.25 10.25 23.2ZM10.675 23.125C10.7 23.1 10.775 23.1 10.825 23.125C10.875 23.15 10.85 23.175 10.775 23.175C10.7 23.175 10.65 23.15 10.675 23.125ZM10.975 23.075C11 23.05 11.05 23.025 11.1 23.05C11.175 23.075 11.15 23.1 11.05 23.1C11 23.1 10.95 23.075 10.975 23.075ZM39.6887 18.375C39.8387 18.2 40.0387 17.9 40.1387 17.675C40.2637 17.45 40.5137 17.075 40.7137 16.85C41.0887 16.4 41.2137 16.225 40.9887 16.4C40.9137 16.475 40.8887 16.475 40.8887 16.375C40.8887 16.3 40.9387 16.15 41.0137 16.075C41.2637 15.725 41.0137 15.825 40.6387 16.225C40.2887 16.6 40.3137 16.575 40.7387 16.025C41.0387 15.675 41.2387 15.375 41.2137 15.35C41.1637 15.3 40.7887 15.725 39.9887 16.6C39.7887 16.825 39.3387 17.3 38.9887 17.65C38.6637 18 38.2387 18.425 38.0887 18.625C37.6387 19.1 36.8637 19.8 36.3637 20.2C36.1137 20.4 35.6137 20.8 35.2637 21.125C34.6137 21.65 34.3887 21.8 34.5887 21.55C34.6887 21.425 34.6637 21.425 34.5387 21.525C34.1887 21.775 33.8637 22.05 33.8637 22.125C33.8637 22.225 33.4887 22.525 33.3387 22.525C33.2887 22.525 32.9637 22.7 32.6387 22.9C31.0387 23.925 29.4637 24.525 27.8637 24.675C27.1637 24.75 26.4137 24.525 26.4137 24.25C26.4137 24.225 26.6387 24.1 26.8887 23.975C28.2637 23.4 28.9887 22.975 30.7137 21.775C31.3387 21.35 32.2887 20.35 32.7137 19.725C33.1387 19.1 33.3637 18.55 33.4137 17.975C33.4887 17.375 33.2637 16.925 32.5387 16.225C31.9887 15.675 31.5637 15.425 30.9637 15.275C30.7887 15.25 30.4637 15.175 30.2387 15.125C30.0137 15.075 29.7387 15.05 29.6137 15.1C29.3887 15.125 28.8887 15.6 28.3387 16.275C28.1137 16.525 27.8637 16.825 27.7387 16.95C27.2137 17.5 26.1137 19.25 25.6137 20.325C25.0637 21.55 24.8887 22.675 25.1137 23.5C25.1387 23.6 25.1137 23.675 24.9637 23.725C24.7387 23.85 24.7387 23.9 24.9887 23.95C25.1387 23.975 25.2637 24.075 25.3887 24.3C25.7387 24.9 27.1137 26.1 27.3137 25.975C27.3637 25.95 27.4637 25.975 27.5637 26.05C28.0137 26.3 30.6137 25.9 31.2887 25.45C31.3887 25.4 31.8137 25.175 32.2137 24.95C33.2387 24.425 34.4637 23.6 35.4887 22.775C35.9637 22.375 38.8387 19.45 39.1887 18.975C39.3387 18.825 39.5637 18.55 39.6887 18.375ZM27.1637 21.1C27.6637 20.1 28.4387 18.95 29.3887 17.775C30.4387 16.475 30.8887 16.175 31.4887 16.325C31.9137 16.45 32.0137 16.55 32.0637 16.875C32.1137 17.225 31.8387 18.15 31.5387 18.575C31.2137 19.025 30.0637 20.2 29.4887 20.7C29.1887 20.925 28.9137 21.15 28.9137 21.175C28.7637 21.325 28.0387 21.875 27.3637 22.3C26.4887 22.9 26.4137 22.95 26.4137 22.925C26.4137 22.75 26.8137 21.825 27.1637 21.1ZM37.3637 20.5C37.2387 20.65 36.9887 20.925 36.7637 21.125C36.4887 21.4 36.5387 21.325 36.9387 20.875C37.5137 20.225 37.7387 20.05 37.3637 20.5ZM52.2008 12.9C52.0258 12.9 51.9758 12.875 52.0258 12.85C52.1758 12.775 52.0258 12.675 51.6758 12.6C51.4258 12.55 51.2508 12.625 51.4258 12.7C51.7008 12.825 51.4508 13.625 50.7258 14.925C50.5008 15.35 50.3008 15.725 50.3008 15.75C50.3008 15.85 49.6758 16.875 49.6008 16.9C49.5508 16.925 49.4758 17.075 49.4008 17.225C49.1508 17.75 48.6758 18.525 48.6258 18.525C48.6008 18.525 48.5258 18.6 48.4758 18.725C48.3758 18.925 48.3508 18.975 47.9258 19.725C47.7758 19.975 47.6758 20.2 47.6758 20.225C47.6758 20.275 47.6258 20.3 47.5758 20.325C47.5008 20.325 47.4508 20.425 47.4008 20.55C47.3758 20.65 47.2758 20.825 47.1758 20.925C47.0508 21.025 46.9758 21.125 46.9508 21.15C46.9508 21.175 46.9508 21.25 46.9258 21.325C46.9258 21.375 46.7258 21.675 46.5008 21.95C46.3008 22.225 45.9258 22.75 45.7008 23.075C45.4758 23.4 45.2008 23.775 45.0758 23.9C44.9508 24.025 44.6758 24.4 44.4508 24.725C43.9258 25.5 42.8508 26.8 42.4258 27.15C42.0758 27.45 41.5258 27.775 41.4758 27.725C41.4508 27.7 41.4008 27.475 41.3508 27.225C41.1258 25.975 41.5758 22.55 42.4008 19.125C42.5008 18.675 42.6758 17.9 42.8008 17.4C43.0008 16.475 43.3008 15.525 43.4258 15.3C43.5258 15.15 43.7258 14.55 43.8008 14.225C43.8508 14.075 43.9008 13.925 43.9508 13.875C44.0508 13.75 44.1008 13.475 44.0258 13.225C43.9508 13.025 43.9008 13 43.7508 12.975C43.6508 12.975 43.5258 12.925 43.4758 12.85C43.4258 12.775 43.3258 12.725 43.2508 12.75C43.1508 12.775 43.0758 12.75 43.0508 12.725C43.0008 12.625 42.5508 12.6 42.4258 12.7C42.3758 12.75 42.1258 13.275 41.8508 13.85C41.6008 14.45 41.1008 15.575 40.7508 16.375C40.1008 17.9 39.9008 18.6 40.1258 18.55C40.2008 18.525 40.3008 18.575 40.3758 18.65C40.4258 18.7 40.5258 18.775 40.5758 18.8C40.6258 18.825 40.5758 19.15 40.3508 20.15C39.3508 24.525 39.2508 26.45 39.8758 27.5C40.0258 27.75 40.4008 28.2 40.6508 28.375C40.8008 28.475 40.9258 28.525 41.0758 28.5C41.2758 28.5 41.3258 28.525 41.3758 28.625C41.5258 28.925 42.9258 28.8 43.3258 28.45C43.4258 28.375 43.7008 28.175 43.9508 28.025C44.2258 27.85 44.4258 27.675 44.4258 27.65C44.4258 27.6 44.5008 27.5 44.6008 27.45C44.9258 27.2 45.6508 26.15 47.4508 23.35C47.9258 22.575 49.9258 19.3 49.9258 19.275C49.9258 19.25 50.1258 18.875 50.3758 18.45C50.6258 18.025 51.0258 17.325 51.2758 16.925C51.5008 16.5 51.7258 16.1 51.7758 16.05C52.0758 15.6 52.6508 14.275 52.7008 13.925C52.7758 13.2 52.6508 12.95 52.2008 12.9ZM40.0508 26.7C40.0258 26.75 40.0008 26.725 40.0258 26.65C40.0258 26.6 40.0258 26.55 40.0508 26.575C40.0758 26.6 40.0758 26.65 40.0508 26.7ZM40.2758 24.5C40.2508 24.55 40.2258 24.5 40.2258 24.425C40.2508 24.325 40.2508 24.3 40.2758 24.35C40.3008 24.375 40.3008 24.45 40.2758 24.5ZM40.2758 24.15C40.2758 24.2 40.2508 24.175 40.2508 24.075C40.2758 23.975 40.2758 23.925 40.3008 23.95C40.3258 24 40.3008 24.1 40.2758 24.15ZM40.1758 23.7C40.1508 23.725 40.1008 24.1 40.0508 24.525C39.9508 25.175 39.9508 25.3 40.0508 25.25C40.1258 25.225 40.1258 25.225 40.0508 25.3C39.9508 25.4 39.9508 25.5 39.9758 25.925C40.0258 26.475 39.9758 26.675 39.9258 26.25C39.8258 25.75 40.0508 23.4 40.2508 22.525C40.6258 20.9 41.2258 18.625 41.3008 18.5C41.3758 18.4 41.3758 18.425 41.3258 18.65C41.3008 18.8 41.2258 19.275 41.1508 19.725C41.0258 20.7 40.8258 21.6 40.7508 21.55C40.7258 21.525 40.7008 21.475 40.7258 21.45C40.8008 21.225 40.8508 20.975 40.8008 20.95C40.7258 20.95 40.4508 22.05 40.3008 22.95C40.2508 23.35 40.1758 23.675 40.1758 23.7ZM40.6758 21.9C40.7258 21.825 40.7508 21.85 40.7258 21.95C40.7258 22.025 40.7008 22.1 40.6508 22.1C40.5508 22.1 40.5758 22.025 40.6758 21.9ZM40.6258 22.4C40.6008 22.45 40.5758 22.425 40.5758 22.3C40.6008 22.2 40.6008 22.15 40.6258 22.2C40.6258 22.25 40.6258 22.325 40.6258 22.4ZM40.5258 22.725C40.5008 22.775 40.4758 22.775 40.4758 22.7C40.4758 22.625 40.5008 22.6 40.5258 22.6C40.5508 22.625 40.5508 22.675 40.5258 22.725ZM40.3758 23.65C40.3758 23.7 40.3508 23.65 40.3758 23.55C40.3758 23.425 40.4008 23.375 40.4008 23.425C40.4258 23.5 40.4008 23.6 40.3758 23.65ZM40.4258 23.225C40.4008 23.275 40.3758 23.275 40.3758 23.2C40.3758 23.125 40.4008 23.1 40.4258 23.1C40.4508 23.125 40.4258 23.175 40.4258 23.225ZM40.6508 26.85C40.6758 27 40.7008 27.125 40.6758 27.15C40.6508 27.15 40.6008 26.95 40.5508 26.7C40.4258 26.1 40.4508 24.6 40.6008 23.875C40.8008 22.925 41.2258 20.85 41.3008 20.425C41.3758 20.025 41.3758 20.025 41.4258 20.275C41.4508 20.425 41.3508 21.05 41.1508 22.025C40.6008 24.75 40.4758 26.025 40.6508 26.85ZM48.5508 20.725C48.4258 20.875 48.2508 21.175 48.1258 21.375C47.9008 21.75 47.8508 21.775 47.8508 21.625C47.8758 21.45 48.0508 21.025 48.1258 21.075C48.1508 21.1 48.2758 20.95 48.4008 20.775C48.5008 20.575 48.6258 20.425 48.6758 20.425C48.7008 20.425 48.6508 20.575 48.5508 20.725ZM48.8008 20.175C48.8008 20.25 48.7758 20.325 48.7258 20.3C48.6258 20.3 48.6508 20.25 48.7508 20.125C48.8008 20.05 48.8258 20.05 48.8008 20.175ZM48.9508 19.95C48.9258 20 48.9008 20 48.9008 19.925C48.9008 19.85 48.9258 19.8 48.9508 19.85C48.9758 19.85 48.9508 19.925 48.9508 19.95ZM49.4258 19.25C49.3008 19.425 49.1758 19.575 49.1508 19.575C49.1258 19.575 49.3758 19.15 49.5508 18.95C49.6258 18.875 49.6758 18.75 49.6758 18.7C49.6758 18.65 49.7258 18.575 49.7508 18.575C49.8758 18.525 49.7008 18.9 49.4258 19.25ZM49.5508 18.55C49.6008 18.525 49.6258 18.55 49.6258 18.575C49.6258 18.625 49.5758 18.65 49.5508 18.65C49.4508 18.65 49.4508 18.6 49.5508 18.55ZM50.1258 18.1C50.0508 18.275 49.9258 18.425 49.9008 18.425C49.8508 18.425 49.8508 18.4 49.8508 18.375C49.8758 18.35 49.9508 18.2 50.0508 18.075C50.2758 17.7 50.3258 17.75 50.1258 18.1ZM50.3258 17.7C50.2508 17.75 50.2508 17.75 50.2758 17.65C50.3258 17.6 50.3508 17.575 50.3758 17.6C50.4008 17.6 50.3758 17.65 50.3258 17.7ZM51.0008 16.55C50.9008 16.725 50.7508 17 50.6758 17.15C50.6008 17.3 50.5008 17.45 50.4508 17.475C50.4258 17.475 50.4258 17.425 50.4758 17.35C50.7508 16.825 50.9508 16.5 51.0508 16.4C51.1508 16.3 51.1258 16.35 51.0008 16.55ZM51.9758 13.575C51.8758 13.85 51.2508 15.075 51.1758 15.175C51.1508 15.2 50.9508 15.525 50.7508 15.9C50.1758 16.95 50.0258 17.175 49.0758 18.725C48.8258 19.125 48.5508 19.575 48.4758 19.75C48.2508 20.15 47.7508 20.925 47.1008 21.85C46.7758 22.325 46.4508 22.75 46.3758 22.825C46.0508 23.15 46.2258 22.85 47.2008 21.3C47.6258 20.625 48.0758 19.9 48.2008 19.675C48.3508 19.425 48.5008 19.2 48.5508 19.15C48.6258 19.125 48.6758 19.05 48.6758 19C48.6758 18.95 48.8008 18.7 48.9508 18.475C49.1008 18.225 49.2508 17.95 49.3008 17.85C49.3508 17.775 49.4258 17.675 49.4508 17.7C49.4758 17.7 49.5008 17.65 49.5258 17.6C49.5258 17.55 49.6008 17.375 49.7258 17.2C49.9758 16.775 50.2008 16.4 50.6508 15.575C51.2008 14.625 51.4008 14.3 51.4758 14.275C51.5008 14.25 51.5258 14.175 51.5258 14.1C51.5258 14.025 51.5758 13.95 51.6008 13.925C51.6508 13.9 51.7008 13.825 51.7258 13.725C51.7508 13.625 51.8258 13.45 51.9008 13.3C51.9758 13.1 52.0008 13.1 52.0258 13.2C52.0508 13.3 52.0258 13.45 51.9758 13.575ZM82.6211 10.9C81.3711 9.75 79.9961 9.2 78.0711 9.15C76.6961 9.075 75.5961 9.325 74.2711 9.925C73.4961 10.275 72.3711 10.975 71.9961 11.3C71.8211 11.45 71.3711 11.825 70.9711 12.1C68.8461 13.6 66.8461 15.9 65.6961 18.175C65.0961 19.325 64.8461 19.975 64.5711 21.15C64.0711 23.225 64.0711 24.65 64.5961 26.15C65.2461 28.05 66.5961 29.475 68.0961 29.875C68.6211 30 69.8711 29.95 70.5961 29.75C70.8961 29.675 71.3211 29.525 71.5711 29.4C72.0711 29.15 72.9711 28.575 73.1461 28.4C73.1961 28.35 73.4961 28.125 73.7961 27.925C74.0961 27.7 74.3461 27.5 74.3461 27.45C74.3461 27.425 74.3961 27.325 74.4961 27.225C74.5711 27.15 74.6211 27.025 74.6211 26.95C74.5961 26.875 74.4961 26.9 74.2211 27.125C74.0461 27.275 73.8461 27.4 73.7711 27.4C73.7211 27.4 73.5961 27.475 73.4711 27.55C73.3711 27.65 73.2461 27.7 73.2211 27.675C73.2211 27.65 73.3711 27.525 73.5711 27.4C73.7711 27.275 74.0961 27.05 74.2711 26.925C74.4961 26.75 74.5961 26.725 74.6211 26.775C74.7211 26.925 75.7711 26.075 75.8711 25.8C75.8961 25.7 75.9461 25.625 75.9711 25.625C76.0211 25.625 76.0461 25.55 76.0211 25.475C76.0211 25.375 76.0461 25.25 76.0961 25.175C76.2461 25.025 76.0961 25.025 75.8711 25.2C75.7711 25.3 75.6711 25.35 75.6461 25.35C75.6461 25.35 75.0961 25.7 74.4711 26.15C72.5211 27.475 71.3711 28.1 70.2211 28.45C69.5711 28.65 68.9711 28.75 68.7211 28.675C68.6711 28.65 68.3461 28.6 68.0211 28.575C67.1461 28.525 66.9211 28.45 66.4711 28C66.0211 27.575 65.6711 26.925 65.4961 26.275C65.3461 25.725 65.2961 24.05 65.3961 23.3C65.5711 22.075 65.9961 20.65 66.4961 19.55C66.8211 18.85 66.8711 18.6 66.5961 19.05C66.3961 19.375 66.4211 19.25 66.6461 18.825C66.9711 18.175 68.0211 16.675 68.5461 16.125C71.5711 12.95 72.5961 12.1 74.4711 11.125C75.9711 10.375 77.0711 10.1 78.6211 10.1C79.6961 10.1 80.2961 10.225 81.1211 10.65C81.7711 10.975 82.5211 11.525 82.7461 11.85C83.1461 12.45 83.3461 13.2 83.3461 14.2C83.3461 15.025 83.0711 16.1 82.5211 17.4C82.1211 18.375 81.6961 19.05 80.8711 20.15C79.9961 21.325 78.9711 22.325 78.2961 22.675C78.1961 22.725 77.9461 22.875 77.7211 23C77.4961 23.125 77.2961 23.225 77.2461 23.175C77.1961 23.15 77.1211 23.15 77.0461 23.175C76.9711 23.225 76.9461 23.25 77.0211 23.275C77.0711 23.3 76.8211 23.35 76.4711 23.35L75.8211 23.375L75.7711 23.1C75.4961 22.15 75.6711 20.65 76.2211 19.2C76.6961 17.875 76.7211 17.8 76.5711 17.525C76.5211 17.375 76.4211 17.275 76.3461 17.275C76.2711 17.275 76.2461 17.225 76.2961 17.125C76.3211 17.05 76.2461 17 76.0461 16.925C75.7961 16.85 75.7711 16.85 75.5711 17.1L75.3461 17.35L75.1211 16.9C74.8961 16.5 74.8211 16.425 74.4711 16.25C74.2211 16.125 74.0211 16.075 73.9211 16.1C73.8211 16.1 73.6711 16.15 73.6211 16.15C73.3961 16.175 72.2961 17.35 71.6711 18.175C70.3461 19.925 69.8711 20.675 69.3961 21.8C68.9961 22.725 68.9711 23.775 69.3461 23.775C69.3961 23.775 69.4461 23.85 69.4461 23.925C69.4461 24 69.5711 24.175 69.6961 24.3C69.9461 24.5 69.9961 24.525 70.3461 24.475C71.0711 24.4 71.5211 24.1 72.4211 23.175C72.8711 22.7 73.5461 21.975 73.8961 21.525C74.5961 20.675 74.6211 20.675 74.6211 21.325C74.6211 21.9 74.7461 22.675 74.8961 22.95C74.9711 23.075 75.1711 23.425 75.3461 23.7C76.2211 25.15 77.7711 25.1 79.5961 23.55C80.1461 23.05 81.4961 21.65 81.7211 21.3C81.7711 21.225 81.8961 21.05 82.0211 20.925C82.2711 20.6 82.9461 19.55 83.1961 19.075C83.3961 18.65 83.8961 17.325 84.0461 16.825C84.2461 16.15 84.3711 15.175 84.3211 14.55C84.2211 13.025 83.6711 11.875 82.6211 10.9ZM73.1711 27.425C73.2461 27.35 73.8711 26.925 74.0461 26.825C74.0961 26.8 74.1211 26.775 74.1211 26.8C74.1211 26.825 73.9461 26.95 73.7211 27.1C73.2461 27.425 73.0711 27.525 73.1711 27.425ZM72.7461 28.05C72.7961 27.975 72.8961 27.9 72.8961 27.9C72.9211 27.9 72.8961 27.975 72.7961 28.05C72.7461 28.125 72.6711 28.175 72.6461 28.175C72.6211 28.175 72.6711 28.125 72.7461 28.05ZM67.9961 15.775C68.0461 15.7 68.1211 15.625 68.1461 15.625C68.1711 15.625 68.1211 15.7 68.0461 15.775C67.9961 15.85 67.9211 15.925 67.8961 15.925C67.8711 15.925 67.9211 15.85 67.9961 15.775ZM66.3211 18.25C66.3711 18.175 66.4211 18.125 66.4211 18.125C66.4461 18.125 66.4211 18.175 66.3961 18.25C66.3461 18.325 66.2961 18.4 66.2711 18.4C66.2461 18.4 66.2711 18.325 66.3211 18.25ZM69.9711 14.025C69.8211 14.2 69.6711 14.375 69.6211 14.4C69.4711 14.5 68.6961 15.4 68.3211 15.925C68.0961 16.2 67.8961 16.45 67.8711 16.475C67.8461 16.5 67.6461 16.8 67.4211 17.15C66.4211 18.65 65.8211 19.9 65.4211 21.425C65.3211 21.8 65.1711 22.475 65.0961 22.95L64.9711 23.75L64.9961 23.125C65.0461 22.225 65.2211 21.5 65.6211 20.35C66.2961 18.5 67.0211 17.25 68.3461 15.625C68.9211 14.95 70.4211 13.45 69.9711 14.025ZM72.7711 11.425C71.6461 12.15 69.6961 13.875 68.8461 14.85C68.2211 15.55 68.0961 15.65 68.4961 15.15C68.6711 14.9 68.9711 14.55 69.1461 14.375C69.3211 14.2 69.4461 14.05 69.4211 14.025C69.3961 13.975 69.2461 14.1 69.0961 14.25C68.1961 15.225 67.8711 15.55 68.0461 15.3C68.4711 14.725 69.9461 13.225 70.4961 12.825C70.8211 12.6 71.2961 12.225 71.5461 12.05C71.8211 11.825 72.1961 11.6 72.3961 11.5C72.5711 11.4 72.9211 11.225 73.1711 11.1C73.6461 10.85 73.5961 10.875 72.7711 11.425ZM73.6461 19.2C73.4461 19.4 73.4461 19.4 73.3711 19.25C73.2461 19.025 73.1961 19.2 73.2461 19.675C73.2711 20.05 73.2711 20.1 72.9961 20.45C72.4961 21.1 71.1461 22.45 70.9711 22.45C70.8711 22.45 70.7711 22.475 70.7211 22.55C70.6211 22.65 70.4711 22.7 70.5211 22.6C71.1711 21.425 71.7461 20.55 72.6711 19.35C73.2461 18.625 74.2461 17.55 74.3711 17.55C74.5461 17.55 73.9711 18.85 73.6461 19.2ZM81.2461 20.425C81.1961 20.5 81.0961 20.625 81.0461 20.675C80.9211 20.75 80.9211 20.75 80.9961 20.625C81.0461 20.55 81.1211 20.425 81.1961 20.375C81.2961 20.275 81.2961 20.275 81.2461 20.425ZM83.1711 16.8C82.8961 17.675 82.6711 18.175 82.2711 18.9C82.0461 19.325 81.7461 19.775 81.6211 19.9C81.3961 20.175 81.4711 19.975 81.8211 19.45C82.1711 18.95 82.9461 17.35 83.1211 16.825C83.1711 16.6 83.2461 16.425 83.2711 16.45C83.2711 16.45 83.2461 16.625 83.1711 16.8ZM122.81 19.5C122.735 19.325 120.035 19.55 119.785 19.75C119.685 19.85 119.835 19.825 120.91 19.725C121.86 19.625 122.46 19.575 122.71 19.575C122.785 19.575 122.835 19.55 122.81 19.5ZM97.8596 16.55C98.0346 17.85 99.0846 19.75 99.9596 20.375C101.085 21.175 101.285 21.275 102.585 21.625C102.785 21.675 103.035 21.8 103.135 21.875C103.31 22 103.635 22.05 105.435 22.175C108.135 22.4 111.01 22.7 111.16 22.775C111.235 22.85 111.135 22.95 110.76 23.175C110.46 23.35 110.11 23.625 109.935 23.775C109.535 24.1 109.035 24.4 108.885 24.35C108.81 24.35 108.485 24.55 108.16 24.825C107.535 25.35 107.11 25.675 106.985 25.65C106.935 25.65 106.885 25.7 106.835 25.75C106.735 25.925 105.61 26.75 105.485 26.725C105.435 26.725 105.06 27 104.71 27.325C104.085 27.85 103.76 28.075 104.01 27.775C104.085 27.7 104.085 27.625 104.06 27.575C103.985 27.5 102.685 28.8 102.685 28.975C102.66 29.075 102.76 29.025 102.96 28.8L103.26 28.475L103.035 28.8C102.91 28.975 102.785 29.2 102.76 29.3C102.735 29.425 102.635 29.475 102.51 29.5C102.335 29.5 102.285 29.575 102.16 29.925C102.085 30.15 102.01 30.625 101.96 30.95C101.885 31.525 101.885 31.625 102.085 32.15C102.335 32.875 102.56 33.15 102.935 33.325C103.36 33.5 103.86 33.525 104.735 33.375C105.61 33.225 107.66 32.65 108.285 32.375C108.485 32.275 108.91 32.1 109.16 32.025C109.685 31.825 111.785 30.75 111.86 30.625C111.885 30.575 111.885 30.55 111.81 30.55C111.71 30.55 113.385 29.45 113.76 29.275C114.26 29.075 115.51 27.775 115.885 27.075C116.185 26.5 116.21 26.4 116.26 25.775C116.285 25.4 116.26 25 116.21 24.875C115.96 24.175 115.635 23.6 115.285 23.175C115.035 22.875 114.91 22.675 114.96 22.625C115.085 22.5 117.235 21.65 118.61 21.175C119.31 20.925 120.035 20.675 120.21 20.6C120.385 20.525 120.71 20.4 120.91 20.35C121.11 20.275 121.31 20.2 121.36 20.175C121.385 20.125 121.635 20.075 121.885 20.025C122.535 19.9 122.535 19.9 122.46 19.825C122.31 19.625 118.66 20.15 117.435 20.55C117.235 20.6 117.06 20.65 117.035 20.625C116.985 20.55 117.535 20.35 118.085 20.25C118.535 20.125 118.71 20 118.385 19.975C118.185 19.975 116.06 20.575 115.935 20.675C115.91 20.725 115.81 20.75 115.735 20.75C115.66 20.725 115.585 20.8 115.56 20.9C115.51 21 115.46 21.05 115.41 21.05C115.335 21.05 115.335 21 115.435 20.925C115.535 20.8 115.535 20.8 115.385 20.85C115.285 20.875 115.085 20.95 114.935 21C114.785 21.025 114.285 21.225 113.86 21.4C113.26 21.675 113.035 21.725 112.885 21.675C112.585 21.525 110.885 21.125 109.91 20.975C109.385 20.9 108.285 20.775 107.435 20.7C104.685 20.45 104.06 20.375 103.135 20.15C102.16 19.9 102.035 19.85 101.235 19.5C100.485 19.15 99.9346 18.725 99.4346 18.075C99.0846 17.625 98.9596 17.375 98.9096 17.1C98.8096 16.575 98.8596 15.925 99.0346 15.375C99.2346 14.725 99.8096 13.625 100.235 13.1C101.16 11.925 103.085 10.2 104.885 8.9C105.985 8.125 105.96 8.125 107.285 7.3C107.91 6.95 108.535 6.525 108.685 6.375C109.26 5.825 113.41 3.825 114.985 3.375C115.41 3.25 115.785 3.125 115.835 3.075C115.935 3 116.66 2.825 117.035 2.775C117.21 2.75 117.61 2.7 117.91 2.625C118.985 2.375 122.16 2.175 122.46 2.325C122.585 2.375 122.685 2.375 122.71 2.325C122.81 2.2 123.16 2.625 123.16 2.825C123.085 3.525 121.76 5.5 120.21 7.2C119.485 7.975 119.16 8.4 119.21 8.45C119.235 8.475 119.31 8.45 119.36 8.375C119.81 7.85 120.36 7.225 120.56 7.025C120.685 6.875 121.01 6.525 121.26 6.2C121.51 5.875 121.735 5.6 121.76 5.625C121.91 5.625 119.735 8.1 119.01 8.8C118.785 9 118.735 9.05 118.86 8.9C119.01 8.75 119.085 8.625 119.06 8.575C119.035 8.55 118.96 8.575 118.91 8.625C117.385 10.2 117.16 10.45 117.21 10.575C117.235 10.675 117.21 10.7 117.16 10.675C117.135 10.65 116.51 11.15 115.81 11.8C113.61 13.825 112.385 14.775 112.185 14.575C112.11 14.5 112.085 14.5 112.085 14.575C112.085 14.625 112.06 14.65 112.01 14.65C111.96 14.65 111.96 14.6 111.985 14.525C112.085 14.275 111.785 14.375 111.61 14.65C111.335 15.05 111.51 15.775 112.035 16.375C112.235 16.625 112.36 16.675 112.61 16.7C112.91 16.725 113.035 16.65 113.635 16.175C114.885 15.2 116.935 13.275 118.51 11.575C118.96 11.1 119.785 10.225 120.36 9.625C124.11 5.725 124.835 4.5 124.285 3.075C124.035 2.375 123.335 1.625 122.685 1.35C121.835 0.975 121.36 0.899999 119.36 0.874998C117.785 0.85 116.385 1.075 115.21 1.525C115.035 1.6 114.635 1.75 114.31 1.85C114.01 1.95 113.635 2.1 113.46 2.175C113.31 2.225 112.96 2.275 112.685 2.25C112.135 2.25 112.135 2.25 110.735 2.925C109.935 3.3 109.835 3.375 109.885 3.475C109.91 3.525 110.06 3.5 110.235 3.4C110.41 3.325 110.56 3.3 110.56 3.325C110.56 3.375 110.41 3.475 110.235 3.55C109.26 4 106.085 5.85 105.41 6.375C104.935 6.7 103.885 7.425 103.46 7.675C103.26 7.775 103.11 7.875 103.085 7.9C103.06 7.925 102.91 8.05 102.76 8.2L102.46 8.425L102.71 8.15C102.835 8.025 102.935 7.9 102.91 7.85C102.835 7.775 102.085 8.375 100.86 9.525C99.0846 11.175 98.2596 12.325 97.8846 13.5C97.7096 14.05 97.5846 15.525 97.7096 15.775C97.7346 15.85 97.8096 16.2 97.8596 16.55ZM117.535 20.95C117.61 20.9 117.76 20.875 117.86 20.825L118.06 20.8L117.86 20.9C117.76 20.975 117.61 21.025 117.535 21.025C117.435 21 117.435 21 117.535 20.95ZM106.435 32.15C106.31 32.175 106.185 32.2 106.185 32.175C106.185 32.125 106.61 31.975 106.66 32.025C106.66 32.05 106.56 32.1 106.435 32.15ZM107.36 31.85C106.985 31.95 106.885 31.95 107.135 31.825C107.26 31.775 107.31 31.7 107.26 31.675C107.235 31.625 107.26 31.6 107.335 31.625C107.56 31.675 107.735 31.65 107.685 31.55C107.66 31.475 107.76 31.45 107.91 31.475C107.935 31.475 108.31 31.325 108.735 31.125C109.185 30.925 109.535 30.8 109.56 30.825C109.585 30.9 107.91 31.675 107.36 31.85ZM109.86 30.625C109.81 30.775 109.76 30.8 109.76 30.675C109.76 30.625 109.81 30.575 109.835 30.55C109.885 30.525 109.91 30.575 109.86 30.625ZM111.61 29.575C111.035 29.95 110.41 30.275 110.535 30.175C110.635 30.075 111.835 29.225 112.11 29.075C112.185 29 112.435 28.85 112.635 28.7C112.835 28.55 113.01 28.45 113.035 28.475C113.06 28.525 112.21 29.2 111.61 29.575ZM113.685 27.975C113.46 28.2 113.135 28.425 113.135 28.35C113.135 28.325 113.335 28.2 113.535 28.025C113.91 27.75 113.91 27.75 113.685 27.975ZM114.335 23.625C115.11 24.1 115.21 24.4 114.835 25.175C114.46 25.925 113.56 26.975 112.935 27.375C112.41 27.7 111.96 28.075 111.61 28.425C111.41 28.625 111.11 28.85 110.91 28.975C110.685 29.075 110.41 29.25 110.285 29.35C110.16 29.45 109.76 29.675 109.435 29.825C108.86 30.075 108.46 30.35 108.635 30.35C108.735 30.375 109.96 29.85 110.46 29.575C110.735 29.45 110.985 29.325 111.01 29.35C111.035 29.375 109.485 30.2 109.26 30.25C109.235 30.275 109.21 30.325 109.235 30.35C109.26 30.4 109.435 30.375 109.635 30.3C110.21 30.1 109.96 30.25 109.11 30.625C107.735 31.225 106.185 31.75 104.985 32C104.535 32.1 104.01 32.15 103.66 32.125L103.085 32.1L103.585 32.025C104.285 31.9 104.96 31.725 104.96 31.625C104.96 31.55 104.835 31.55 104.085 31.675C103.885 31.7 103.585 31.725 103.385 31.7C103.06 31.675 103.035 31.675 103.235 31.6C103.385 31.525 103.41 31.525 103.285 31.475C103.085 31.4 103.135 31.275 103.61 30.625C104.26 29.75 106.01 28.1 107.085 27.325C107.36 27.125 107.96 26.7 108.46 26.35C108.935 26 109.36 25.725 109.385 25.725C109.41 25.725 109.985 25.35 110.685 24.925C111.36 24.5 112.285 23.95 112.71 23.7C113.56 23.2 113.635 23.225 114.335 23.625ZM112.585 22.925C112.685 23.025 112.51 23.2 112.085 23.375C111.835 23.5 111.585 23.65 111.535 23.725C111.46 23.775 111.36 23.825 111.285 23.825C111.21 23.825 111.11 23.875 111.035 23.925C110.985 24 110.885 24.05 110.835 24.05C110.76 24.05 110.71 24.075 110.71 24.125C110.71 24.175 110.66 24.2 110.585 24.2C110.535 24.2 110.335 24.325 110.16 24.5C109.96 24.675 109.76 24.825 109.71 24.825C109.585 24.8 109.235 25.05 109.235 25.175C109.235 25.225 109.185 25.3 109.135 25.325C109.06 25.375 109.06 25.35 109.11 25.275C109.16 25.2 109.135 25.2 109.06 25.2C108.985 25.225 108.96 25.3 108.96 25.375C108.96 25.475 108.91 25.5 108.735 25.5C108.485 25.475 108.31 25.55 108.36 25.65C108.385 25.7 108.185 25.825 107.935 25.925C107.51 26.125 107.11 26.375 105.985 27.2C105.61 27.475 105.285 27.6 105.535 27.375C106.035 26.925 107.41 25.925 108.335 25.35C108.935 24.975 109.785 24.45 110.185 24.15C110.935 23.65 112.51 22.825 112.585 22.925ZM122.66 4.325C122.71 4.25 122.785 4.175 122.785 4.175C122.81 4.175 122.81 4.25 122.76 4.325C122.685 4.425 122.635 4.5 122.61 4.5C122.585 4.5 122.61 4.425 122.66 4.325ZM122.535 4.575C122.56 4.575 122.41 4.8 122.235 5.05C121.885 5.5 121.81 5.6 121.81 5.5C121.81 5.425 122.51 4.575 122.535 4.575ZM122.685 5.675C122.36 6.175 120.685 8.2 120.41 8.45C120.26 8.55 119.86 8.975 119.485 9.375C119.11 9.75 118.635 10.25 118.435 10.475C118.21 10.7 117.985 10.925 117.91 10.95C117.81 11.025 118.56 10.2 120.06 8.65C120.86 7.825 121.41 7.2 122.01 6.425C122.285 6.075 122.585 5.7 122.685 5.575L122.86 5.4L122.685 5.675ZM100.96 11.6C100.535 12.05 100.535 12.05 100.41 11.95C100.335 11.9 100.36 11.85 100.485 11.725C100.61 11.65 100.635 11.625 100.585 11.7C100.535 11.75 100.485 11.85 100.46 11.9C100.46 11.95 100.66 11.8 100.91 11.6L101.335 11.2L100.96 11.6ZM102.11 10.275C102.01 10.375 101.985 10.35 102.035 10.25C102.085 10.125 102.235 10.075 102.235 10.15C102.235 10.175 102.185 10.225 102.11 10.275ZM103.56 9.025C103.435 9.125 103.335 9.175 103.335 9.15C103.335 9.125 103.435 9.05 103.585 8.95C103.71 8.85 103.835 8.8 103.81 8.825C103.81 8.85 103.71 8.95 103.56 9.025ZM104.56 8.3C104.51 8.35 104.435 8.425 104.41 8.425C104.385 8.425 104.435 8.35 104.485 8.3C104.535 8.225 104.61 8.175 104.635 8.175C104.66 8.175 104.61 8.225 104.56 8.3ZM108.11 5.975C108.06 6.05 107.96 6.125 107.91 6.125C107.86 6.1 107.835 6.1 107.86 6.075C107.885 6.075 107.985 6.025 108.06 5.95C108.21 5.85 108.21 5.85 108.11 5.975ZM109.71 5.05C109.61 5.15 109.51 5.2 109.46 5.2C109.385 5.2 109.335 5.25 109.31 5.3C109.285 5.35 109.26 5.35 109.235 5.25C109.185 5.075 109.46 4.875 109.71 4.875C109.86 4.9 109.86 4.9 109.71 5.05ZM113.81 3.125C113.735 3.175 113.635 3.2 113.61 3.2C113.56 3.175 113.585 3.15 113.66 3.125C113.71 3.075 113.81 3.05 113.86 3.05C113.885 3.05 113.885 3.075 113.81 3.125ZM113.635 2.75C113.71 2.725 113.735 2.725 113.71 2.775C113.685 2.825 113.61 2.85 113.585 2.85C113.46 2.85 113.51 2.8 113.635 2.75ZM113.41 3.2C113.46 3.225 113.235 3.35 112.91 3.475C112.585 3.625 112.185 3.775 112.06 3.825C111.935 3.9 111.86 3.9 111.91 3.85C112.035 3.725 113.335 3.175 113.41 3.2ZM113.26 2.875C113.31 2.85 113.335 2.875 113.335 2.925C113.335 2.975 113.31 3 113.26 3C113.16 3 113.16 2.95 113.26 2.875ZM110.685 3.9C110.935 3.675 112.935 2.95 112.81 3.15C112.785 3.2 112.66 3.225 112.51 3.25C112.385 3.275 111.91 3.45 111.51 3.625C110.835 3.9 110.585 4 110.685 3.9ZM99.4846 11.625C100.385 10.5 102.61 8.525 104.21 7.425C105.76 6.35 105.735 6.375 108.235 4.875C108.36 4.775 108.66 4.675 108.86 4.625C109.085 4.55 109.535 4.375 109.885 4.225C110.235 4.075 110.535 3.925 110.56 3.925C110.71 3.95 110.41 4.125 109.81 4.425C109.41 4.625 108.96 4.85 108.81 4.975C108.685 5.075 108.535 5.15 108.51 5.15C108.46 5.15 108.16 5.325 107.785 5.55C107.41 5.775 106.91 6.075 106.635 6.25C106.36 6.4 105.785 6.775 105.36 7.075C104.935 7.35 104.535 7.625 104.46 7.65C104.21 7.725 102.985 8.725 101.985 9.65C100.81 10.75 99.8846 11.725 99.3096 12.575C99.0346 12.925 98.7596 13.35 98.6346 13.5C98.3596 13.925 98.4346 13.725 98.7346 13.15C99.0596 12.6 99.3846 12.15 100.435 10.925L101.16 10.1L100.56 10.65C99.8596 11.275 99.1346 12.15 98.7596 12.775C98.6096 13 98.5096 13.175 98.5096 13.125C98.5096 12.975 99.0096 12.225 99.4846 11.625ZM110.66 23.125C110.685 23.075 110.685 23.025 110.66 23.025C110.585 23.025 109.96 23.425 109.96 23.475C109.96 23.525 110.61 23.2 110.66 23.125ZM104.51 27.325C104.685 27.2 105.135 26.825 105.535 26.5C106.285 25.9 106.485 25.7 106.185 25.85C106.035 25.925 104.56 27.05 104.285 27.3C104.235 27.35 104.185 27.45 104.185 27.5C104.185 27.55 104.335 27.475 104.51 27.325ZM109.11 29.725C109.035 29.7 108.885 29.775 108.785 29.85C108.51 30.075 108.735 30.1 109.01 29.875C109.185 29.775 109.185 29.725 109.11 29.725ZM131.961 7.325C132.386 7.3 132.961 7.25 133.586 7.225C133.961 7.2 134.586 7.175 134.986 7.15C135.961 7.075 139.011 6.975 139.486 7C141.386 7.05 143.986 7.25 144.186 7.325C144.286 7.375 144.236 7.425 143.986 7.5C143.561 7.575 142.961 7.825 142.961 7.9C142.961 7.95 142.036 8.225 141.486 8.325C141.286 8.35 141.286 8.45 141.461 8.45C141.536 8.45 141.636 8.475 141.686 8.5C141.736 8.55 141.911 8.575 142.186 8.575C142.411 8.575 142.636 8.575 142.661 8.6C142.761 8.625 143.986 8.45 144.236 8.375C144.336 8.325 144.461 8.325 144.486 8.325C144.636 8.35 145.286 7.9 145.336 7.725C145.411 7.475 145.386 7.275 145.286 7.2C145.211 7.175 145.186 7.075 145.186 6.975C145.186 6.875 145.136 6.75 145.111 6.7C144.986 6.55 144.386 6.3 143.861 6.2C143.361 6.1 143.261 6.1 140.586 6.1C138.511 6.1 137.536 6.125 136.686 6.175C135.936 6.225 134.061 6.375 132.436 6.5C132.886 5.775 133.286 5.175 133.536 4.85C133.961 4.325 134.461 3.55 134.461 3.375C134.486 3.3 134.561 3.2 134.636 3.125C134.961 2.875 134.736 2.05 134.336 2C134.211 2 134.111 1.95 134.136 1.9C134.136 1.775 133.511 1.4 133.186 1.375C132.886 1.325 132.536 1.575 132.486 1.85C132.486 1.925 132.336 2.2 132.186 2.45C131.936 2.8 130.436 5.45 129.736 6.7L129.436 6.75C129.236 6.75 128.936 6.775 128.736 6.8C128.536 6.8 127.886 6.85 127.286 6.925C126.686 6.975 125.236 7.075 124.061 7.175C122.886 7.275 121.586 7.375 121.186 7.425C119.036 7.625 116.711 7.775 117.136 7.675C117.236 7.65 117.386 7.625 117.511 7.625C117.611 7.625 117.711 7.6 117.711 7.575C117.711 7.55 117.586 7.55 117.411 7.55C117.236 7.575 116.386 7.625 115.536 7.7C114.686 7.775 113.811 7.825 113.611 7.85C113.286 7.875 113.236 7.875 113.136 7.75C112.886 7.5 112.361 7.475 112.011 7.675C111.786 7.825 111.761 7.825 111.161 7.825C110.536 7.825 110.536 7.825 110.486 7.95C110.461 8.025 110.411 8.1 110.386 8.15C110.261 8.225 110.261 8.65 110.386 8.65C110.436 8.625 110.461 8.675 110.461 8.75C110.461 8.9 110.736 9.175 110.911 9.225C111.111 9.25 112.986 9.15 113.686 9.075C115.361 8.875 117.436 8.675 120.961 8.35C125.211 7.95 125.186 7.95 125.236 7.925C125.386 7.875 129.061 7.525 129.061 7.575C129.061 7.575 129.136 7.575 129.286 7.575C125.886 13.975 123.711 19.325 122.061 25.3C121.311 27.975 120.986 29.5 120.761 31.5C120.411 34.5 120.536 36.05 121.211 37.05C121.436 37.375 121.661 37.625 121.711 37.65C121.761 37.65 121.911 37.725 122.061 37.85C122.186 37.95 122.411 38.1 122.561 38.2C122.736 38.275 122.986 38.375 123.136 38.4C123.511 38.45 124.036 38.25 124.061 38.025C124.061 37.95 124.136 37.825 124.186 37.75C124.311 37.65 124.036 36.5 123.861 36.5C123.811 36.475 123.561 36.6 123.311 36.775C123.061 36.95 122.811 37.075 122.786 37.075C122.661 37.05 122.486 36.325 122.436 35.775C122.311 33.9 122.761 30.425 123.461 28.125C123.561 27.775 123.786 26.95 123.961 26.325C124.761 23.4 126.636 18.1 127.386 16.675C127.661 16.15 128.286 14.8 128.686 13.8C129.261 12.425 129.536 11.875 131.411 8.35C131.586 8 131.786 7.65 131.961 7.325ZM141.736 6.475C142.311 6.375 143.761 6.55 144.411 6.8C144.661 6.875 144.511 6.9 144.236 6.825C143.986 6.75 143.036 6.65 142.661 6.65C142.486 6.65 142.311 6.625 142.286 6.6C142.261 6.575 142.086 6.55 141.886 6.575C141.511 6.575 141.411 6.525 141.736 6.475ZM140.886 6.45C141.136 6.45 141.311 6.475 141.286 6.475C141.186 6.5 141.186 6.5 141.286 6.55C141.336 6.575 141.336 6.575 141.236 6.575C141.186 6.575 141.111 6.575 141.111 6.55C141.111 6.525 140.986 6.5 140.811 6.5C140.611 6.5 140.461 6.5 140.436 6.475C140.411 6.45 140.611 6.45 140.886 6.45ZM137.861 6.475C138.061 6.45 140.236 6.425 140.186 6.475C140.161 6.475 139.736 6.5 139.236 6.525C138.736 6.525 138.286 6.55 138.236 6.55C138.211 6.575 138.061 6.55 137.936 6.55C137.686 6.525 137.686 6.5 137.861 6.475ZM134.386 6.7C134.461 6.65 134.536 6.65 135.186 6.625C135.461 6.6 135.961 6.575 136.286 6.55C137.061 6.475 137.561 6.475 137.561 6.55C137.561 6.575 137.511 6.575 137.436 6.575C137.186 6.575 136.336 6.65 136.261 6.675C136.111 6.75 135.811 6.775 135.461 6.725C135.261 6.675 135.036 6.675 134.986 6.675C134.861 6.725 134.886 6.725 135.061 6.75C135.236 6.775 135.236 6.775 134.986 6.775C134.836 6.775 134.736 6.75 134.761 6.725C134.786 6.7 134.711 6.7 134.586 6.725C134.461 6.725 134.361 6.725 134.386 6.7ZM124.011 7.525C123.636 7.575 122.911 7.625 122.336 7.675C121.811 7.725 120.986 7.8 120.536 7.85C119.286 7.95 118.861 7.975 118.911 7.95C118.936 7.925 119.311 7.9 119.761 7.85C120.211 7.8 120.986 7.725 121.486 7.675C122.386 7.575 124.086 7.45 124.586 7.425C124.736 7.425 124.886 7.4 124.936 7.375C124.961 7.35 125.011 7.35 125.011 7.4C125.011 7.45 124.886 7.475 124.011 7.525ZM125.286 7.45C125.261 7.45 125.236 7.425 125.236 7.4C125.236 7.375 125.261 7.35 125.286 7.35C125.336 7.35 125.361 7.375 125.361 7.4C125.361 7.425 125.336 7.45 125.286 7.45ZM125.611 7.4C125.536 7.4 125.511 7.375 125.536 7.35C125.561 7.325 125.611 7.3 125.661 7.3C125.686 7.3 125.711 7.325 125.711 7.35C125.711 7.375 125.661 7.4 125.611 7.4ZM126.636 7.3C126.511 7.35 126.436 7.35 126.436 7.3C126.436 7.275 126.511 7.25 126.586 7.25C126.711 7.25 126.736 7.275 126.636 7.3ZM127.936 7.225C127.686 7.25 127.311 7.275 127.111 7.275C126.911 7.3 126.761 7.3 126.786 7.275C126.836 7.25 128.411 7.125 128.411 7.15C128.411 7.175 128.211 7.2 127.936 7.225ZM121.811 33.15C121.786 33.2 121.761 33.6 121.761 34.025C121.786 34.475 121.761 34.875 121.736 34.875C121.661 34.95 121.661 34.45 121.711 33.475C121.761 32.825 121.786 32.625 121.811 32.825C121.861 32.95 121.861 33.1 121.811 33.15ZM121.936 31.55C121.911 31.625 121.886 31.6 121.886 31.5C121.911 31.375 121.936 31.325 121.961 31.375C121.986 31.4 121.961 31.475 121.936 31.55ZM127.761 13.725C127.736 13.975 127.436 14.775 127.361 14.775C127.336 14.75 127.261 14.875 127.236 15C127.186 15.125 127.111 15.225 127.061 15.225C127.011 15.225 126.961 15.45 126.936 15.75C126.886 16.05 126.811 16.3 126.736 16.35C126.561 16.475 126.336 17.05 126.361 17.25C126.386 17.35 126.386 17.375 126.336 17.325C126.286 17.275 126.211 17.45 126.136 17.75C126.086 18.025 125.986 18.275 125.961 18.3C125.911 18.35 125.836 18.525 125.811 18.75C125.761 18.975 125.661 19.25 125.586 19.375C125.411 19.675 125.136 20.425 124.836 21.4C124.711 21.8 124.561 22.225 124.486 22.325C124.411 22.425 124.336 22.65 124.311 22.8C124.161 23.675 124.011 24.15 123.911 24.075C123.861 24.05 123.786 24.1 123.736 24.2C123.711 24.3 123.711 24.4 123.761 24.425C123.786 24.45 123.761 24.65 123.686 24.85C123.186 26.5 123.036 26.925 123.011 27.175C122.986 27.35 122.911 27.6 122.811 27.75C122.661 28 122.661 28.05 122.761 28.2C122.861 28.35 122.861 28.375 122.711 28.475C122.586 28.55 122.511 28.825 122.336 29.675C122.111 30.95 121.911 31.5 122.011 30.65C122.036 30.325 122.136 29.775 122.236 29.4C122.311 29.025 122.461 28.35 122.561 27.875C122.661 27.425 122.911 26.5 123.111 25.85C123.311 25.175 123.561 24.325 123.686 23.95C124.061 22.525 124.611 20.9 125.261 19.275C125.586 18.475 125.736 18.2 125.836 18.2C125.961 18.225 125.961 18.2 125.861 18.1C125.761 18.025 125.836 17.825 126.211 16.875C126.936 15.1 127.811 13.35 127.761 13.725ZM129.261 9.625C128.586 10.9 126.861 14.575 126.386 15.7C125.686 17.45 124.586 20.3 124.561 20.45C124.536 20.55 124.161 21.65 123.886 22.375C123.836 22.525 123.761 22.775 123.711 22.95C123.661 23.1 123.536 23.55 123.436 23.925C123.311 24.275 123.111 24.925 123.011 25.325C122.886 25.725 122.711 26.325 122.586 26.675C122.486 27.025 122.336 27.55 122.286 27.85C122.211 28.15 122.061 28.85 121.911 29.425C121.761 30.075 121.561 31.25 121.386 32.6C121.111 34.775 120.986 35.35 121.011 34.275C121.011 33.95 120.986 33.475 120.961 33.225C120.886 32.6 121.261 29.375 121.436 29.425C121.536 29.475 121.561 29.425 121.461 29.175C121.386 29.025 121.436 28.775 121.561 28.175C121.686 27.725 121.811 27.325 121.861 27.3C121.961 27.225 122.086 26.925 121.986 26.925C121.861 26.9 121.911 26.725 122.411 24.975C122.661 24.1 122.886 23.425 122.936 23.425C122.986 23.45 123.311 22.625 123.636 21.625C124.361 19.475 125.561 16.425 125.861 15.925C125.986 15.725 126.086 15.55 126.086 15.5C126.086 15.45 126.211 15.175 126.386 14.875C126.961 13.75 127.261 13.125 127.261 12.975C127.261 12.9 127.286 12.85 127.311 12.85C127.361 12.85 127.411 12.775 127.411 12.65C127.486 12.325 128.811 9.775 129.061 9.525C129.186 9.4 129.361 9.2 129.436 9.075C129.686 8.75 129.636 8.9 129.261 9.625ZM144.568 18.175C144.518 18.2 144.343 18.5 144.118 18.825C143.918 19.175 143.393 19.875 142.968 20.375C142.118 21.4 140.218 23.325 139.668 23.75C138.993 24.25 138.468 24.55 138.043 24.65C137.893 24.675 137.718 24.75 137.668 24.8C137.618 24.85 137.568 24.875 137.418 24.825C137.218 24.775 137.193 24.75 137.168 24.45C137.043 23.675 137.218 22.625 137.743 21.05C138.293 19.4 139.018 17.825 139.668 16.85C139.793 16.7 139.943 16.4 139.993 16.175C140.118 15.825 140.118 15.775 140.018 15.5C139.943 15.25 139.893 15.2 139.743 15.175C139.668 15.15 139.568 15.1 139.568 15.05C139.543 15 139.443 14.975 139.343 14.975C138.993 14.975 138.668 15.45 137.693 17.35C137.418 17.9 137.318 18.025 136.368 19.15C136.043 19.525 135.693 19.95 135.593 20.05C135.518 20.175 135.393 20.35 135.318 20.4C135.118 20.65 133.718 22.275 133.543 22.5C133.118 23.05 132.668 23.55 132.368 23.8C132.193 23.925 131.993 24.125 131.918 24.2L131.768 24.375L131.818 24.15C131.993 23.15 132.118 22.7 132.518 21.625C132.768 20.95 133.193 19.95 133.468 19.375C133.718 18.825 133.943 18.325 133.943 18.3C133.943 18.3 134.068 18 134.218 17.65C134.443 17.2 134.543 16.95 134.568 16.65C134.593 16.275 134.593 16.275 134.368 16.075C134.243 15.95 134.093 15.875 134.018 15.875C133.943 15.875 133.868 15.825 133.868 15.775C133.868 15.675 133.568 15.65 133.393 15.75C133.118 15.9 132.993 16.125 132.243 17.65C131.168 19.925 130.618 21.55 130.393 23.1C130.293 23.85 130.343 24.1 130.843 24.8C130.893 24.875 130.993 24.925 131.043 24.925C131.093 24.925 131.193 24.975 131.243 25.025C131.393 25.175 131.768 25.3 132.093 25.3C132.293 25.3 132.468 25.25 132.718 25.1C133.168 24.875 133.343 24.7 133.768 24.1C134.443 23.1 136.218 20.725 136.268 20.75C136.268 20.775 136.218 21.025 136.118 21.325C135.843 22.475 135.793 23.475 136.018 24.175C136.168 24.7 136.668 25.4 136.893 25.4C136.943 25.4 137.018 25.45 137.043 25.475C137.043 25.525 137.218 25.6 137.368 25.675C137.543 25.75 137.793 25.825 137.918 25.825C138.268 25.825 138.918 25.725 138.993 25.625C139.043 25.575 139.168 25.5 139.293 25.45C139.693 25.3 140.443 24.75 140.643 24.525C140.768 24.375 141.168 23.95 141.543 23.55C141.943 23.15 142.343 22.7 142.468 22.55C142.568 22.375 142.818 22.075 142.993 21.85C143.443 21.3 144.068 20.375 144.318 19.95C144.618 19.4 144.668 19.15 144.643 18.3C144.618 18.225 144.593 18.15 144.568 18.175ZM153.348 16.4C153.298 16.55 153.323 16.55 153.473 16.35C153.548 16.25 153.623 16.125 153.623 16.075C153.623 15.975 153.423 16.2 153.348 16.4ZM149.173 21.925C149.123 22.025 149.023 22.1 148.948 22.1C148.823 22.125 148.748 22.25 148.673 22.575C148.648 22.725 148.648 22.825 148.673 22.825C148.773 22.825 149.323 21.925 149.323 21.825C149.298 21.775 149.248 21.8 149.173 21.925ZM162.098 6.6C162.323 6.25 162.498 5.925 162.498 5.875C162.473 5.8 162.698 5.425 162.973 5C163.248 4.575 163.523 4.175 163.548 4.1C163.623 4 163.698 3.9 163.798 3.775C163.798 3.35 163.673 2.9 163.323 2.675C163.073 2.5 162.798 2.4 162.523 2.375C162.498 2.45 162.448 2.5 162.398 2.575C162.098 3 161.823 3.35 161.773 3.35C161.723 3.35 161.523 3.65 161.298 4C161.073 4.325 160.748 4.85 160.548 5.15C160.373 5.45 159.973 6.1 159.698 6.6C159.398 7.075 159.073 7.575 158.973 7.7C158.848 7.8 158.773 7.925 158.798 7.975C158.823 8.025 158.748 8.25 158.623 8.5C158.473 8.725 158.248 9.2 158.073 9.525C157.323 11.025 157.048 11.525 156.598 12.075C156.348 12.4 156.098 12.675 156.048 12.675C156.023 12.675 155.948 12.75 155.898 12.8C155.823 12.925 155.848 12.925 155.948 12.8C156.273 12.5 155.973 12.975 154.848 14.55C154.198 15.45 153.398 16.6 153.073 17.075C152.748 17.55 152.348 18.1 152.198 18.325L151.923 18.7V18.45C151.923 18.2 152.423 17.4 153.073 16.6C153.173 16.45 153.523 15.95 153.848 15.5C154.148 15.025 155.123 13.7 155.948 12.525C156.798 11.35 157.548 10.3 157.623 10.175C157.748 9.975 157.748 9.95 157.623 9.975C157.448 9.975 155.198 13 153.898 14.95C153.748 15.2 153.573 15.4 153.548 15.375C153.523 15.375 153.223 15.75 152.898 16.225C152.548 16.675 152.148 17.25 151.998 17.475L151.698 17.875L151.573 17.575C151.498 17.4 151.248 17.125 150.848 16.775C150.048 16.125 149.723 15.95 149.123 15.875C148.698 15.8 148.648 15.825 148.098 16.025C147.798 16.15 147.448 16.375 147.323 16.5C146.823 16.975 145.123 19.3 144.948 19.7C144.873 19.925 144.623 20.425 144.398 20.825C144.173 21.225 143.873 21.8 143.773 22.125C143.648 22.425 143.498 22.725 143.423 22.825C143.248 23.025 143.173 23.2 142.673 24.525C142.248 25.6 142.073 26.325 142.123 26.725C142.198 27.35 142.948 28.15 143.748 28.475C144.098 28.625 144.248 28.65 144.648 28.6C145.248 28.525 145.748 28.325 146.348 27.875C146.823 27.525 147.523 26.75 147.498 26.575C147.498 26.55 147.698 26.2 147.973 25.85C148.223 25.475 148.448 25.15 148.448 25.1C148.423 25 149.123 23.95 149.923 22.775C150.223 22.325 150.773 21.55 151.098 21.05C151.773 20.025 151.973 19.75 153.473 17.625C154.898 15.625 155.598 14.675 155.548 14.825C155.498 14.875 155.423 15.025 155.373 15.125C155.248 15.375 154.748 16.6 154.248 17.8C154.048 18.275 153.748 19.025 153.548 19.45C152.473 21.875 150.398 27.7 149.898 29.725C149.548 31.225 149.523 32.475 149.823 33.1C150.173 33.775 151.123 34.675 151.498 34.625C151.548 34.625 151.673 34.65 151.798 34.7C152.023 34.8 152.073 34.8 152.298 34.7C152.548 34.6 152.473 34.475 152.048 34.15L151.673 33.875L151.598 33.2C151.498 32.375 151.598 31.65 152.098 29.675C152.623 27.65 154.273 23 155.573 19.975C155.748 19.575 155.998 18.925 156.148 18.525C156.273 18.1 156.423 17.75 156.448 17.725C156.498 17.725 156.523 17.675 156.523 17.65C156.498 17.6 156.698 17.175 156.948 16.7C157.173 16.2 157.548 15.4 157.798 14.9C158.398 13.525 159.823 10.7 160.598 9.275C161.623 7.375 161.673 7.275 162.098 6.6ZM153.373 15.75C153.548 15.4 153.548 15.4 153.548 15.475C153.548 15.525 153.498 15.65 153.398 15.8L153.248 16.05L153.373 15.75ZM149.873 21.4C149.548 21.825 149.123 22.45 148.923 22.775C148.698 23.1 148.473 23.375 148.423 23.375C148.373 23.4 148.373 23.375 148.423 23.325C148.448 23.3 148.523 23.175 148.573 23.05C148.648 22.875 148.648 22.875 148.523 23C148.398 23.1 148.398 23.1 148.473 22.95C148.573 22.7 148.523 22.65 148.398 22.825C148.323 22.9 148.273 23.05 148.273 23.125C148.273 23.175 148.248 23.25 148.223 23.25C148.173 23.275 147.773 23.75 147.323 24.325C146.273 25.7 145.673 26.375 145.198 26.775C144.998 26.95 144.748 27.15 144.648 27.25C144.573 27.325 144.323 27.45 144.148 27.5L143.823 27.575L143.873 27.175C144.023 26.2 145.023 23.8 145.923 22.3C147.073 20.35 147.423 19.825 148.223 18.8C149.123 17.65 149.598 17.2 149.948 17.15C150.148 17.15 150.148 17.15 150.248 17.6C150.373 18.125 150.373 18.975 150.248 19.325C150.148 19.625 150.148 19.65 150.273 19.575C150.398 19.525 150.448 19.7 150.348 19.8C150.223 19.9 150.298 20 150.423 19.925C150.623 19.85 150.623 19.875 150.348 20.2C150.198 20.375 150.123 20.45 150.148 20.4C150.173 20.35 150.148 20.3 150.123 20.3C150.073 20.325 150.023 20.375 149.998 20.425C149.998 20.475 149.923 20.625 149.848 20.75C149.798 20.9 149.723 21.075 149.698 21.175C149.673 21.25 149.573 21.4 149.498 21.475C149.398 21.55 149.373 21.625 149.373 21.675C149.398 21.725 149.548 21.6 149.698 21.375C150.273 20.525 150.748 19.925 150.823 19.925C150.898 19.9 150.773 20.1 149.873 21.4ZM160.873 6.025C161.123 5.625 161.048 5.825 160.548 6.625C160.098 7.4 160.123 7.35 160.123 7.3C160.098 7.225 160.573 6.425 160.873 6.025ZM159.998 8.875C159.873 9.1 159.623 9.55 159.448 9.85C159.073 10.5 159.023 10.6 159.023 10.525C158.998 10.425 160.173 8.3 160.248 8.275C160.323 8.275 160.298 8.375 159.998 8.875ZM159.973 7.55C159.973 7.45 160.023 7.425 160.048 7.45C160.073 7.45 160.048 7.525 159.998 7.575C159.948 7.65 159.923 7.65 159.973 7.55ZM159.573 8.1C159.673 8.025 159.748 8 159.773 8.05C159.773 8.1 159.798 8.1 159.873 8.025C159.973 7.9 159.973 7.925 159.898 8.075C159.848 8.175 159.798 8.225 159.773 8.175C159.773 8.125 159.698 8.175 159.623 8.25C159.573 8.325 159.498 8.35 159.473 8.325C159.448 8.275 159.473 8.175 159.573 8.1ZM159.423 8.625C159.448 8.65 159.548 8.6 159.623 8.525C159.698 8.45 159.648 8.575 159.523 8.825C159.398 9.075 159.223 9.35 159.173 9.45C159.073 9.65 158.973 9.7 158.973 9.525C158.948 9.35 159.323 8.625 159.423 8.625ZM158.973 10.625C158.998 10.625 158.948 10.8 158.848 11.025C158.673 11.375 158.598 11.5 158.598 11.4C158.573 11.325 158.923 10.625 158.973 10.625ZM158.273 12C158.323 11.85 158.423 11.7 158.473 11.65C158.548 11.55 158.548 11.575 158.498 11.7C158.448 11.8 158.373 11.95 158.298 12.075L158.173 12.275L158.273 12ZM157.373 12.65C157.448 12.675 157.473 12.65 157.448 12.5C157.448 12.4 157.473 12.325 157.498 12.325C157.648 12.3 157.648 12.4 157.573 12.625C157.473 12.85 157.423 12.9 157.323 12.825C157.223 12.725 157.248 12.625 157.373 12.65ZM156.673 13.9C156.723 13.95 156.748 14 156.748 14.025C156.698 14.05 156.673 14.025 156.623 13.95C156.573 13.85 156.598 13.85 156.673 13.9ZM156.198 15.025C156.273 14.8 156.298 14.75 156.323 14.85C156.323 14.9 156.298 15 156.248 15.075C156.148 15.225 156.148 15.225 156.198 15.025ZM155.898 15.65C155.923 15.6 155.973 15.625 155.973 15.65C155.973 15.675 155.948 15.775 155.923 15.825C155.873 15.925 155.848 15.925 155.848 15.825C155.823 15.75 155.873 15.675 155.898 15.65ZM155.023 16.475C155.073 16.45 155.098 16.475 155.098 16.5C155.098 16.5 155.073 16.55 155.023 16.575C154.998 16.6 154.973 16.6 154.948 16.55C154.948 16.5 154.998 16.475 155.023 16.475ZM154.373 17.875C154.398 17.825 154.423 17.85 154.398 17.925C154.373 18.075 154.323 18.1 154.298 18C154.298 17.95 154.323 17.9 154.373 17.875ZM154.473 19.3C154.523 19.3 154.548 19.3 154.548 19.25C154.523 19.2 154.498 19.15 154.448 19.15C154.423 19.125 154.373 19.075 154.373 19.025C154.348 18.975 154.373 18.975 154.473 19.025C154.598 19.125 154.823 18.825 154.723 18.625C154.698 18.55 154.723 18.425 154.773 18.35C154.823 18.25 154.873 18.225 154.873 18.275C154.873 18.325 154.848 18.375 154.823 18.425C154.773 18.45 154.748 18.5 154.748 18.575C154.773 18.65 155.423 17.325 155.423 17.225C155.423 17.2 155.373 17.175 155.348 17.225C155.223 17.3 155.348 16.875 155.523 16.525C155.748 16.1 155.773 16.15 155.573 16.65C155.373 17.1 155.373 17.225 155.498 17.125C155.573 17.05 155.548 17.125 154.798 18.9C154.223 20.275 154.223 20.275 154.223 19.925C154.198 19.65 154.373 19.25 154.473 19.3ZM153.473 20.4C153.523 20.35 153.523 20.4 153.523 20.45C153.498 20.6 153.448 20.625 153.423 20.525C153.423 20.475 153.448 20.425 153.473 20.4ZM153.348 21.5C153.423 21.425 153.448 21.35 153.448 21.3C153.448 21.25 153.498 21.15 153.573 21.05C153.673 20.975 153.698 20.95 153.648 20.975C153.498 21.05 153.523 20.925 153.748 20.475C153.923 20.1 153.948 20.075 153.948 20.25C153.973 20.35 153.923 20.45 153.898 20.45C153.848 20.45 153.773 20.5 153.748 20.55C153.723 20.625 153.748 20.625 153.823 20.6C154.048 20.475 154.048 20.725 153.848 21.25C153.648 21.75 153.598 21.85 153.573 21.7C153.573 21.675 153.498 21.675 153.423 21.7C153.248 21.75 153.223 21.65 153.348 21.5ZM153.973 22.025C153.973 22.05 153.948 22.1 153.923 22.15C153.898 22.175 153.848 22.175 153.848 22.125C153.848 22.075 153.873 22.025 153.898 22C153.948 21.975 153.973 21.975 153.973 22.025ZM151.123 27.625C151.123 27.55 151.173 27.5 151.198 27.525C151.223 27.55 151.198 27.625 151.173 27.675C151.098 27.75 151.098 27.75 151.123 27.625ZM151.023 27.9C151.073 27.825 151.098 27.8 151.098 27.85C151.098 27.9 151.073 27.975 151.048 28.05C151.023 28.1 150.998 28.125 150.973 28.1C150.973 28.05 150.998 27.95 151.023 27.9ZM150.798 28.65C150.798 28.575 150.848 28.525 150.873 28.55C150.898 28.575 150.873 28.625 150.848 28.7C150.773 28.775 150.773 28.775 150.798 28.65ZM150.673 29C150.723 28.875 150.773 28.825 150.773 28.875C150.773 28.9 150.748 29.025 150.698 29.15C150.648 29.25 150.623 29.3 150.598 29.275C150.598 29.225 150.648 29.1 150.673 29ZM150.473 30.775C150.423 31.075 150.348 31.525 150.323 31.75L150.273 32.175V31.825C150.273 31.2 150.698 29.45 151.298 27.575C151.423 27.2 151.498 26.9 151.473 26.875C151.448 26.85 151.398 26.95 151.348 27.075C151.298 27.2 151.273 27.275 151.248 27.25C151.248 27.2 151.498 26.425 151.823 25.475C152.298 24.15 152.423 23.8 152.498 23.9C152.548 24.025 152.573 24 152.648 23.75C152.698 23.575 152.723 23.4 152.723 23.35C152.723 23.3 152.748 23.2 152.823 23.15C152.873 23.075 152.948 22.925 152.998 22.8C153.023 22.675 153.123 22.475 153.173 22.375C153.248 22.3 153.273 22.175 153.273 22.125C153.223 22.05 153.248 22.025 153.323 22.05C153.373 22.05 153.473 22 153.498 21.95C153.548 21.875 153.348 22.425 153.073 23.2C152.798 23.95 152.548 24.575 152.498 24.575C152.373 24.6 152.298 24.825 152.398 24.85C152.423 24.875 152.273 25.425 152.048 26.075C151.823 26.725 151.448 27.85 151.248 28.575C151.023 29.325 150.773 29.975 150.723 30.075C150.648 30.175 150.548 30.5 150.473 30.775ZM159.723 10.05C159.423 10.625 158.948 11.55 158.673 12.125C158.423 12.7 158.098 13.375 157.973 13.625C157.748 14.05 157.248 15.15 156.598 16.65C156.398 17.075 156.223 17.45 156.198 17.525C156.173 17.6 155.923 18.175 155.673 18.8C155.423 19.425 155.198 19.975 155.173 20.025C155.098 20.15 154.123 22.6 154.148 22.65C154.148 22.675 154.073 22.825 153.998 23C153.673 23.675 151.898 28.8 151.823 29.2C151.798 29.45 151.698 29.85 151.623 30.075C151.373 30.9 151.348 30.975 151.273 31.4C151.223 31.625 151.173 31.8 151.148 31.8C151.048 31.825 151.198 31 151.473 29.9C151.498 29.85 151.473 29.8 151.423 29.8C151.273 29.825 150.923 31.575 150.948 32.225C150.948 32.65 150.873 32.8 150.848 32.425C150.748 31.6 151.348 28.95 152.223 26.5C153.523 22.825 153.848 21.975 153.773 22.475C153.773 22.575 153.573 23.075 153.373 23.6C153.173 24.125 153.023 24.6 153.048 24.65C153.098 24.75 153.523 23.75 153.498 23.6C153.498 23.525 153.548 23.375 153.648 23.225C153.723 23.075 153.798 22.925 153.798 22.875C153.773 22.825 153.848 22.65 153.923 22.525C154.023 22.375 154.073 22.225 154.073 22.175C154.073 22.125 154.098 22.05 154.148 22C154.273 21.825 154.448 21.225 154.373 21.175C154.348 21.15 154.273 21.275 154.223 21.45C154.098 21.8 153.998 21.9 154.048 21.625C154.098 21.375 156.498 15.675 156.623 15.475C156.773 15.275 156.698 15.65 156.473 16.075C156.248 16.55 156.198 16.7 156.273 16.7C156.298 16.7 156.398 16.5 156.498 16.275C156.598 16.025 156.748 15.7 156.848 15.525C157.073 15.175 157.098 15 156.898 15.225C156.648 15.5 156.723 15.2 157.123 14.375C157.323 13.925 157.573 13.35 157.673 13.1C157.773 12.85 157.898 12.65 157.923 12.65C157.948 12.65 157.998 12.55 158.023 12.475C158.023 12.4 158.073 12.325 158.123 12.325C158.173 12.3 158.173 12.375 158.123 12.475C158.073 12.575 157.998 12.75 157.948 12.875C157.898 12.975 157.823 13.15 157.748 13.225C157.698 13.325 157.598 13.575 157.498 13.8C157.398 14.025 157.248 14.4 157.148 14.6C157.023 14.85 156.973 15.025 156.998 15.025C157.098 15 157.223 14.775 157.323 14.475C157.373 14.35 157.473 14.125 157.573 13.975C157.673 13.85 157.848 13.475 157.948 13.2C158.073 12.9 158.223 12.575 158.273 12.475C158.348 12.4 158.648 11.8 158.973 11.15C159.298 10.525 159.698 9.775 159.848 9.5C159.998 9.225 160.223 8.875 160.298 8.7C160.498 8.3 160.848 7.75 160.698 8.075C160.648 8.2 160.548 8.45 160.448 8.625C160.373 8.825 160.048 9.475 159.723 10.05ZM152.748 17.25L152.398 17.8L152.798 17.275C153.023 17 153.198 16.75 153.173 16.725C153.148 16.7 152.948 16.95 152.748 17.25ZM152.923 25.025C152.898 25.025 152.823 25.125 152.773 25.275C152.673 25.55 152.773 25.575 152.923 25.3C153.023 25.1 153.023 25 152.923 25.025ZM152.598 25.9C152.548 25.9 152.398 26.3 152.423 26.425C152.423 26.425 152.473 26.45 152.498 26.425C152.548 26.425 152.573 26.35 152.548 26.275C152.548 26.2 152.573 26.1 152.598 26.075C152.698 26 152.673 25.875 152.598 25.9ZM156.123 17C156.098 17 155.823 17.625 155.498 18.35C154.723 20.125 154.598 20.425 154.623 20.475C154.648 20.6 154.923 20.075 154.948 19.9C154.948 19.8 155.148 19.375 155.323 18.95C155.723 18.125 156.173 17 156.123 17ZM153.698 21.3C153.748 21.3 153.998 20.725 153.948 20.7C153.948 20.7 153.873 20.825 153.798 21C153.723 21.175 153.673 21.3 153.698 21.3ZM152.073 25.125C152.098 25.125 152.173 24.925 152.248 24.7C152.373 24.4 152.423 24.325 152.473 24.4C152.523 24.45 152.548 24.475 152.548 24.425C152.548 24.375 152.498 24.3 152.473 24.25C152.398 24.175 152.348 24.275 152.223 24.65C152.123 24.925 152.048 25.125 152.073 25.125ZM163.75 24.75C163.75 24.7 163.775 24.625 163.85 24.6C163.975 24.525 164.45 24.025 164.975 23.375C166.125 22 166.35 21.7 166.75 21.025C168.35 18.525 168.575 18.05 168.575 17.65L168.55 17.4L168.45 17.575C168.375 17.65 168.35 17.75 168.375 17.775C168.45 17.85 168.275 18.175 168.2 18.125C168.15 18.125 168.125 18.125 168.175 18.175C168.225 18.225 167.175 19.775 166.825 20.15C166.675 20.3 166.65 20.325 166.675 20.2C166.675 20.125 166.725 20.025 166.775 19.95C167.05 19.575 167.7 18.575 168 18.1C168.175 17.8 168.375 17.5 168.45 17.45C168.5 17.375 168.525 17.3 168.5 17.25C168.45 17.125 168.35 17.25 168.05 17.75C167.925 17.975 167.775 18.2 167.75 18.25C167.7 18.3 167.625 18.45 167.55 18.55C167.5 18.65 167.45 18.725 167.425 18.675C167.425 18.65 167.6 18.375 167.8 18.025C168 17.725 168.15 17.425 168.1 17.4C168.075 17.375 168.1 17.325 168.15 17.325C168.275 17.3 168.65 16.6 168.575 16.55C168.55 16.525 168.475 16.65 168.375 16.825C168.275 17 168.175 17.15 168.125 17.15C168.075 17.15 167.85 17.475 167.625 17.85C166.275 20.025 163.55 23.25 161.65 24.875C160.775 25.625 160.1 26.075 159.7 26.15L159.375 26.225L159.35 25.925C159.325 25.725 159.325 25.55 159.35 25.525C159.45 25.4 159.4 25.2 159.275 25.275C159.225 25.3 159.2 25.3 159.2 25.25C159.2 25.2 159.25 25.15 159.325 25.15C159.375 25.15 159.425 25.025 159.475 24.8C159.625 23.9 160.225 22.1 160.625 21.35C160.675 21.275 160.8 21 160.9 20.775C161 20.55 161.15 20.25 161.225 20.1C161.3 19.95 161.5 19.6 161.675 19.275C161.825 18.975 162.05 18.575 162.15 18.375C162.25 18.2 162.45 17.85 162.55 17.6C162.675 17.375 162.825 17.05 162.925 16.875C163 16.7 163.075 16.475 163.075 16.3L163.05 16L162.575 15.7C162.175 15.425 162.05 15.375 161.85 15.4C161.625 15.425 161.575 15.475 161.25 15.925C160.925 16.4 160.8 16.625 160.1 18.075C159.9 18.5 159.65 19.025 159.55 19.225C159.45 19.425 159.25 19.875 159.125 20.25C159 20.6 158.825 21.075 158.725 21.325C158.65 21.55 158.525 21.925 158.475 22.125C158.4 22.325 158.325 22.65 158.275 22.825C158.125 23.375 157.75 25.4 157.775 25.575C157.775 25.625 157.925 25.825 158.1 26.05C158.65 26.75 159.375 27.125 160.125 27.1C160.325 27.1 160.475 27.1 160.5 27.1C160.8 27.1 162.1 26.375 162.625 25.875C163.275 25.3 163.75 24.8 163.75 24.75ZM166.25 20.575C166.35 20.6 166.425 20.65 166.45 20.65C166.45 20.65 166.4 20.675 166.3 20.7C166.2 20.7 166.125 20.675 166.125 20.625C166.125 20.575 166.15 20.55 166.25 20.575ZM162.9 12.55C162.95 12.6 163 12.675 163.025 12.7C163.025 12.75 163.125 12.875 163.225 13C163.35 13.15 163.45 13.2 163.65 13.2C163.775 13.2 163.925 13.2 163.95 13.225C164.075 13.375 164.325 13.05 164.8 12.125C165.15 11.45 165.5 10.875 166.025 10.175C166.2 9.95 166.375 9.65 166.375 9.55C166.375 9.45 166.425 9.3 166.45 9.25C166.5 9.15 166.475 9.05 166.35 8.8C166.125 8.3 166 8.325 165.375 8.9C164.725 9.5 163.5 11.125 163.075 11.875C162.8 12.425 162.775 12.475 162.9 12.55ZM174.33 17.45C175.93 17.625 178.48 17.425 180.88 16.9V16.875C180.88 16.875 180.88 16.875 180.905 16.875C180.93 16.85 180.955 16.825 180.955 16.8C180.98 16.8 180.98 16.8 180.98 16.8C180.98 16.775 180.98 16.775 181.005 16.75C181.005 16.725 181.03 16.7 181.03 16.675C181.03 16.675 181.03 16.675 181.055 16.65C181.055 16.625 181.08 16.575 181.08 16.525C181.08 16.5 181.08 16.375 181.08 16.35C181.08 16.325 181.055 16.2 181.08 16.25C181.08 16.225 181.055 16.175 181.055 16.125C181.03 16.125 181.005 16.05 181.005 16.025C181.005 16.025 180.98 16.025 180.98 16C180.98 16 180.955 16 180.955 15.975C180.58 16.05 180.33 16.1 180.305 16.075C180.28 16.05 180.48 16 180.73 15.95C180.78 15.95 180.83 15.925 180.905 15.925C180.88 15.9 180.88 15.9 180.855 15.875H180.83C180.805 15.85 180.78 15.85 180.78 15.85C180.78 15.85 180.755 15.825 180.73 15.825C180.68 15.8 180.655 15.8 180.605 15.8C180.58 15.8 180.455 15.775 180.43 15.775C180.355 15.775 180.305 15.775 180.23 15.775C180.13 15.775 180.03 15.775 179.93 15.775C178.705 16.025 177.68 16.175 176.58 16.25C174.805 16.4 173.305 16.3 173.305 16.075C173.33 15.925 172.805 15.35 172.555 15.225C172.28 15.075 171.98 15.05 171.705 15.15C171.53 15.225 171.455 15.2 171.255 15.075C171.005 14.925 170.58 14.85 170.53 14.95C170.505 14.975 170.555 15.125 170.655 15.25L170.83 15.5L170.355 15.925C169.105 17.05 168.005 18.7 167.48 20.175C167.105 21.25 167.205 23.125 167.68 23.725C167.805 23.875 167.905 24.025 167.905 24.075C167.88 24.325 168.505 24.925 168.88 25.025C169.305 25.15 169.58 25.15 169.805 25.05C169.905 25.025 170.255 24.9 170.58 24.825C171.255 24.65 171.68 24.425 172.33 23.85C173.03 23.225 173.68 22.35 174.03 21.55C174.28 21 174.33 20.8 174.355 20.225C174.43 19.375 174.33 18.75 174.055 18.025C173.93 17.7 173.805 17.425 173.805 17.4C173.78 17.375 174.03 17.4 174.33 17.45ZM179.68 16.2C179.755 16.15 180.28 16.05 180.205 16.1C180.18 16.125 180.03 16.175 179.88 16.2C179.73 16.225 179.63 16.225 179.68 16.2ZM172.205 21.925C171.48 22.725 170.955 23.125 170.155 23.475C169.555 23.725 169.28 23.8 168.93 23.8C168.505 23.8 168.48 23.8 168.43 23.6C168.255 23.05 168.43 21.85 168.805 20.925C169.105 20.175 170.155 18.375 170.505 18.05C170.655 17.9 170.755 17.75 170.78 17.7C170.78 17.625 171.83 16.6 171.93 16.575C171.98 16.55 171.98 16.6 171.98 16.65C171.905 16.8 172.03 17 172.18 17C172.255 17.025 172.33 17.05 172.355 17.1C172.38 17.125 172.505 17.175 172.655 17.175C172.88 17.175 172.93 17.2 173.105 17.5C173.78 18.675 173.38 20.6 172.205 21.925Z" fill="white"/>
</svg>
